<?xml version="1.0" encoding="UTF-8" standalone="no"?>
<svg
   xmlns:dc="http://purl.org/dc/elements/1.1/"
   xmlns:cc="http://creativecommons.org/ns#"
   xmlns:rdf="http://www.w3.org/1999/02/22-rdf-syntax-ns#"
   xmlns:svg="http://www.w3.org/2000/svg"
   xmlns="http://www.w3.org/2000/svg"
   xmlns:xlink="http://www.w3.org/1999/xlink"
   xmlns:sodipodi="http://sodipodi.sourceforge.net/DTD/sodipodi-0.dtd"
   xmlns:inkscape="http://www.inkscape.org/namespaces/inkscape"
   version="1.1"
   width="300"
   height="350"
   id="svg3903"
   viewBox="0 0 300 350"
   sodipodi:docname="LOGO_UNI.svg"
   inkscape:version="0.92.4 (5da689c313, 2019-01-14)">
  <metadata
     id="metadata3907">
    <rdf:RDF>
      <cc:Work
         rdf:about="">
        <dc:format>image/svg+xml</dc:format>
        <dc:type
           rdf:resource="http://purl.org/dc/dcmitype/StillImage" />
        <dc:title></dc:title>
      </cc:Work>
    </rdf:RDF>
  </metadata>
  <sodipodi:namedview
     pagecolor="#ffffff"
     bordercolor="#666666"
     borderopacity="1"
     objecttolerance="10"
     gridtolerance="10"
     guidetolerance="10"
     inkscape:pageopacity="0"
     inkscape:pageshadow="2"
     inkscape:window-width="1920"
     inkscape:window-height="1001"
     id="namedview3905"
     showgrid="false"
     inkscape:zoom="1.03"
     inkscape:cx="103.19229"
     inkscape:cy="314.06987"
     inkscape:window-x="-9"
     inkscape:window-y="-9"
     inkscape:window-maximized="1"
     inkscape:current-layer="svg3903" />
  <defs
     id="defs3722">
    <linearGradient
       id="grad1">
      <stop
         offset="866972714.0000%"
         stop-color="#c9ae5a"
         stop-opacity="1.0000"
         id="stop3715" />
      <stop
         offset="12.0000%"
         stop-color="#000000"
         stop-opacity="1.0000"
         id="stop3717" />
      <stop
         offset="0.0000%"
         stop-color="#d6d6d6"
         stop-opacity="1.0000"
         id="stop3719" />
    </linearGradient>
  </defs>
  <defs
     id="defs3734">
    <linearGradient
       id="grad2">
      <stop
         offset="866972714.0000%"
         stop-color="#bca758"
         stop-opacity="1.0000"
         id="stop3726" />
      <stop
         offset="12.0000%"
         stop-color="#000000"
         stop-opacity="1.0000"
         id="stop3728" />
      <stop
         offset="1581675980.0000%"
         stop-color="#d6d6d6"
         stop-opacity="1.0000"
         id="stop3730" />
    </linearGradient>
    <linearGradient
       xlink:href="#grad2"
       id="grad3"
       x1="0"
       y1="0"
       x2="0"
       y2="1"
       gradientTransform="rotate(-84,0.5,0.5)"
       gradientUnits="objectBoundingBox" />
  </defs>
  <path
     d="m 46.1083,-467.14497 h 82.3547 v 60.1681 H 46.1083 Z"
     style="fill:none"
     id="path3899"
     inkscape:connector-curvature="0" />
  <path
     inkscape:connector-curvature="0"
     style="fill:#17e2ff;fill-opacity:0.54128436;fill-rule:evenodd;stroke:none;stroke-width:1.04576826;stroke-linecap:butt;stroke-linejoin:miter;stroke-dasharray:none;stroke-opacity:0.99541285"
     d="m 143.65664,162.13563 -1.17023,9.15392 c -3.11316,0.35255 -6.15514,0.9159 -9.11144,1.67477 l -4.83785,-8.03556 -12.06381,4.63981 2.67621,8.87294 c -2.70484,1.42488 -5.28557,3.0285 -7.72267,4.79694 l -7.78029,-5.71381 -9.242566,8.57718 6.119326,7.25179 c -1.90753,2.26286 -3.638606,4.65977 -5.177587,7.1723 l -9.528671,-2.51216 -5.020634,11.20949 8.624681,4.52336 c -0.823862,2.74896 -1.440288,5.57791 -1.827856,8.47366 l -9.838603,1.06475 -0.03774,12.14485 9.83662,1.11466 c 0.371801,2.89717 0.96892,5.73064 1.776191,8.48291 l -8.650499,4.47714 4.953079,11.23721 9.542577,-2.46408 c 1.523824,2.52057 3.242073,4.92594 5.135862,7.19817 l -6.16304,7.22221 9.1929,8.6234 7.8101,-5.67315 c 2.42672,1.78141 4.99866,3.40058 7.69485,4.83946 l -2.72787,8.85446 12.036,4.70265 4.88355,-8.00968 c 2.95263,0.77458 5.99216,1.35642 9.10349,1.72469 l 1.11658,9.15577 13.05324,0.0665 1.22586,-9.15022 c 3.11529,-0.3376 6.16151,-0.88318 9.12137,-1.62671 l 4.79017,8.06144 12.09163,-4.57696 -2.62456,-8.88773 c 2.71339,-1.41087 5.30332,-3.00208 7.75049,-4.75812 l 7.74651,5.75447 9.29423,-8.52912 -6.07761,-7.28505 c 1.92146,-2.25283 3.66966,-4.64008 5.22329,-7.14457 l 9.51079,2.56391 5.08619,-11.18546 -8.59289,-4.56586 c 0.84034,-2.74527 1.47118,-5.5728 1.87553,-8.46628 l 9.84458,-1.01299 0.10927,-12.14484 -9.83265,-1.16458 c -0.35421,-2.89954 -0.93175,-5.73657 -1.72255,-8.49215 l 8.67832,-4.43462 -4.88751,-11.26125 -9.55848,2.41603 c -1.50917,-2.52863 -3.21357,-4.94217 -5.09414,-7.22406 l 6.20675,-7.19078 -9.13925,-8.66961 -7.84785,5.63432 c -2.41625,-1.7938 -4.97781,-3.42604 -7.66505,-4.87827 l 2.78151,-8.84337 -12.00819,-4.76367 -4.93122,7.98381 c -3.16595,-0.84764 -6.43372,-1.47114 -9.78298,-1.85038 l -1.17022,-9.15392 z m 6.5286,19.57593 c 28.39267,0 51.40832,21.41396 51.40832,47.83073 0,26.41686 -23.01565,47.83257 -51.40832,47.83257 -28.39277,0 -51.410303,-21.41571 -51.410303,-47.83257 0,-26.41677 23.017533,-47.83073 51.410303,-47.83073 z m 0,4.08156 c -25.9693,0 -47.02148,19.58721 -47.02148,43.74917 0,24.16205 21.05218,43.74917 47.02148,43.74917 25.9692,0 47.01949,-19.58712 47.01949,-43.74917 0,-24.16196 -21.05029,-43.74917 -47.01949,-43.74917 z"
     id="path3794" />
  <path
     d="m 152.21876,12.092195 c 75.97657,0 137.56805,73.432879 137.56805,164.015765 0,90.5827 -61.59148,164.01586 -137.56805,164.01586 -75.976663,0 -137.56845,-73.43316 -137.56845,-164.01586 0,-90.582886 61.591787,-164.015765 137.56845,-164.015765 z M 295.99654,176.10796 c 0,-94.671918 -64.37159,-171.4191617 -143.77778,-171.4191617 -79.406183,0 -143.7781859,76.7472437 -143.7781859,171.4191617 0,94.67164 64.3720029,171.41926 143.7781859,171.41926 79.40619,0 143.77778,-76.74762 143.77778,-171.41926 z"
     style="fill:#17e2ff;fill-opacity:0.54128436;fill-rule:evenodd;stroke:#fffff9;stroke-width:0.98120505;stroke-opacity:0.67986797"
     id="path3713"
     inkscape:connector-curvature="0" />
  <g
     id="Layer1000"
     style="fill:#17e2ff;fill-opacity:0.54128436;stroke:none"
     transform="matrix(1.017239,0,0,0.94644756,-138.42056,-159.31826)">
    <g
       id="Layer1001"
       style="fill:#17e2ff;fill-opacity:0.54128436;stroke:none">
      <path
         d="m 235.2888,293.6635 c 0,0 -8.6991,18.1241 -18.4682,37.6453 -0.6844,2.8618 -1.9672,5.4264 -3.8467,7.646 -6.6731,13.1886 -13.383,26.0256 -17.8045,33.4158 0,0 -0.6668,-19.3088 8.2697,-37.9616 0.7604,-3.5378 2.339,-5.964 4.3934,-7.917 11.3029,-18.7885 19.9877,-31.2048 27.4563,-32.8285 z"
         style="fill:#17e2ff;fill-opacity:0.54128436;fill-rule:evenodd;stroke:none;stroke-width:1.06579995;stroke-linecap:round;stroke-linejoin:round;stroke-dasharray:none"
         id="path3738"
         inkscape:connector-curvature="0" />
      <path
         d="m 197.6479,331.4671 c -0.8253,-0.4127 4.5403,-7.8421 4.5403,-7.8421 l 5.6415,3.0863 c 3.2196,1.2603 6.1244,2.9131 8.8212,4.8259 l 47.1146,25.7757 -2.4182,4.0089 c -3.5711,-0.7324 -30.6026,-13.7131 -48.2856,-22.3146 -3.9457,-1.2394 -7.2777,-2.8624 -9.6778,-4.7238 -3.5556,-1.7414 -5.736,-2.8163 -5.736,-2.8163 z"
         style="fill:#17e2ff;fill-opacity:0.54128436;fill-rule:evenodd;stroke:none;stroke-width:1.06579995;stroke-linecap:round;stroke-linejoin:round;stroke-dasharray:none"
         id="path3740"
         inkscape:connector-curvature="0" />
      <path
         d="m 216.7509,331.5917 c -0.7001,2.7482 -1.9597,5.2171 -3.777,7.3631 -0.003,0.007 -0.007,0.0142 -0.0108,0.0212 -3.8641,-1.2232 -7.134,-2.8149 -9.5088,-4.6381 0.748,-3.415 2.2624,-5.7894 4.2317,-7.705 l 0.1437,0.0784 c 3.2196,1.2603 6.1244,2.9131 8.8212,4.8259 z"
         style="fill:#17e2ff;fill-opacity:0.54128436;fill-rule:evenodd;stroke:none;stroke-width:1.06579995;stroke-linecap:round;stroke-linejoin:round;stroke-dasharray:none"
         id="path3742"
         inkscape:connector-curvature="0" />
      <path
         d="m 207.355,325.6711 c 0,0 6.0472,12.012 6.0775,14.2785 m 4.3222,-8.5893 c 0,0 -11.0377,1.856 -15.3378,3.2122"
         style="fill:#17e2ff;fill-opacity:0.54128436;stroke:none;stroke-width:1.06579995;stroke-linecap:round;stroke-linejoin:round;stroke-dasharray:none"
         id="path3744"
         inkscape:connector-curvature="0" />
    </g>
    <g
       id="Layer1002"
       style="fill:#17e2ff;fill-opacity:0.54128436;stroke:none">
      <path
         d="m 336.1386,293.6635 c 0,0 8.699,18.1241 18.4681,37.6453 0.6845,2.8618 1.9673,5.4264 3.8468,7.646 6.6731,13.1886 13.3829,26.0256 17.8045,33.4158 0,0 0.6667,-19.3088 -8.2697,-37.9616 -0.7605,-3.5378 -2.339,-5.964 -4.3934,-7.917 -11.3029,-18.7885 -19.9877,-31.2048 -27.4563,-32.8285 z"
         style="fill:#17e2ff;fill-opacity:0.54128436;fill-rule:evenodd;stroke:none;stroke-width:1.06579995;stroke-linecap:round;stroke-linejoin:round;stroke-dasharray:none"
         id="path3747"
         inkscape:connector-curvature="0" />
      <path
         d="m 373.7794,331.4671 c 0.8254,-0.4127 -4.5402,-7.8421 -4.5402,-7.8421 l -5.6416,3.0863 c -3.2195,1.2603 -6.1243,2.9131 -8.8212,4.8259 l -47.1145,25.7757 2.4181,4.0089 c 3.5712,-0.7324 30.6026,-13.7131 48.2857,-22.3146 3.9456,-1.2394 7.2777,-2.8624 9.6778,-4.7238 3.5555,-1.7414 5.7359,-2.8163 5.7359,-2.8163 z"
         style="fill:#17e2ff;fill-opacity:0.54128436;fill-rule:evenodd;stroke:none;stroke-width:1.06579995;stroke-linecap:round;stroke-linejoin:round;stroke-dasharray:none"
         id="path3749"
         inkscape:connector-curvature="0" />
      <path
         d="m 354.6765,331.5917 c 0.7001,2.7482 1.9596,5.2171 3.777,7.3631 0.003,0.007 0.007,0.0142 0.0107,0.0212 3.8642,-1.2232 7.1341,-2.8149 9.5088,-4.6381 -0.7479,-3.415 -2.2623,-5.7894 -4.2317,-7.705 l -0.1437,0.0784 c -3.2195,1.2603 -6.1243,2.9131 -8.8212,4.8259 z"
         style="fill:#17e2ff;fill-opacity:0.54128436;fill-rule:evenodd;stroke:none;stroke-width:1.06579995;stroke-linecap:round;stroke-linejoin:round;stroke-dasharray:none"
         id="path3751"
         inkscape:connector-curvature="0" />
      <path
         d="m 364.0724,325.6711 c 0,0 -6.0473,12.012 -6.0775,14.2785 m -4.3222,-8.5893 c 0,0 11.0377,1.856 15.3378,3.2122"
         style="fill:#17e2ff;fill-opacity:0.54128436;stroke:none;stroke-width:1.06579995;stroke-linecap:round;stroke-linejoin:round;stroke-dasharray:none"
         id="path3753"
         inkscape:connector-curvature="0" />
    </g>
  </g>
  <g
     id="Layer1003"
     style="fill:#17e2ff;fill-opacity:0.54128436;stroke:#ffffff;stroke-opacity:1"
     transform="matrix(1.017239,0,0,0.94644756,-138.42056,-159.31826)">
    <path
       d="m 311.3536,263.0653 c -0.6076,-0.0416 -1.2581,-0.1339 -1.951,-0.2311 0.5869,0.0777 1.3845,0.1544 1.951,0.2311 z m -16.1725,12.6752 c 8.6872,2.3216 12.7978,1.0135 13.4386,-1.2125 0.1371,-2.7492 0.8259,-4.1428 0.9632,-6.8923 -0.2057,0.2137 -5.0659,-0.1297 -4.8865,-0.4054 0.0837,-0.1282 4.3003,0.6389 5.0904,-0.121 0.2745,-1.0899 1.4422,-2.9322 1.7161,-4.0228 -0.0474,-0.007 -0.0976,-0.014 -0.1493,-0.0212 1.1056,0.0758 2.8869,0.0521 3.7097,-0.4805 -0.8488,-4.1532 -3.5344,-5.5296 -4.7947,-10.4463 0.5853,-1.2538 1.5708,-3.3318 1.9319,-5.0041 -7.9991,-0.7176 -17.5153,-2.2446 -25.4454,4.837 -0.1759,12.6105 2.4375,12.1796 3.4061,17.0888 -5.9609,4.3386 -13.1786,6.4033 -23.4853,4.2316 -1.4804,4.1483 -2.1366,6.3721 -3.9647,7.5117 2.0821,14.4041 11.9757,22.0302 22.9069,28.4251 0.1264,-0.8825 0.2359,-1.7705 0.3344,-2.6624 0.6975,-6.3122 0.3738,-13.1564 1.9268,-19.0664 0.786,-2.9976 5.1306,-9.7017 7.3018,-11.7593 z"
       style="fill:#17e2ff;fill-opacity:0.54128436;fill-rule:evenodd;stroke:#ffffff;stroke-width:0.76560003;stroke-linecap:butt;stroke-linejoin:miter;stroke-dasharray:none;stroke-opacity:1"
       id="path3759"
       inkscape:connector-curvature="0" />
    <path
       d="m 257.8522,282.8015 c 1.3527,-0.2952 3.5064,-1.7029 4.8591,-1.9981 2.1338,14.7618 12.4718,22.4049 23.7227,28.8996 l -6.9488,7.4683 C 269.4466,305.29 263.4766,304.8981 257.8522,282.8015 Z"
       style="fill:#17e2ff;fill-opacity:0.54128436;fill-rule:evenodd;stroke:#ffffff;stroke-width:0.76560003;stroke-linecap:butt;stroke-linejoin:miter;stroke-dasharray:none;stroke-opacity:1"
       id="path3761"
       inkscape:connector-curvature="0" />
    <defs
       id="defs3771">
      <linearGradient
         id="grad4">
        <stop
           offset="866972714.0000%"
           stop-color="#bca758"
           stop-opacity="1.0000"
           id="stop3763" />
        <stop
           offset="12.0000%"
           stop-color="#000000"
           stop-opacity="1.0000"
           id="stop3765" />
        <stop
           offset="1581675980.0000%"
           stop-color="#d6d6d6"
           stop-opacity="1.0000"
           id="stop3767" />
      </linearGradient>
      <linearGradient
         xlink:href="#grad4"
         id="grad5"
         x1="0"
         y1="0"
         x2="0"
         y2="1"
         gradientTransform="rotate(-83,0.5,0.5)"
         gradientUnits="objectBoundingBox" />
    </defs>
    <path
       d="m 264.2427,272.7145 c -1.2815,-0.1476 -1.8406,-0.3701 -3.121,-0.5177 1.7076,-2.8784 3.2456,-7.7484 1.6081,-10.7743 -7.0535,-8.1749 -6.4955,-18.7028 0.8921,-26.2025 3.7953,-3.853 7.9508,-5.3649 14.504,-6.7878 21.3178,-3.2311 31.0129,5.8414 40.7521,18.8775 -8.8513,0.7869 -21.8246,-4.5346 -32.1228,4.6616 -0.1759,12.6106 2.4374,12.1798 3.4058,17.0888 -6.4191,4.6724 -14.2956,6.7075 -25.9183,3.6544 z"
       style="fill:#17e2ff;fill-opacity:0.54128436;stroke:#ffffff;stroke-width:0.76560003;stroke-linecap:butt;stroke-linejoin:miter;stroke-dasharray:none;stroke-opacity:1"
       id="path3773"
       inkscape:connector-curvature="0" />
    <defs
       id="defs3783">
      <linearGradient
         id="grad6">
        <stop
           offset="866972714.0000%"
           stop-color="#bca758"
           stop-opacity="1.0000"
           id="stop3775" />
        <stop
           offset="12.0000%"
           stop-color="#000000"
           stop-opacity="1.0000"
           id="stop3777" />
        <stop
           offset="1581675980.0000%"
           stop-color="#d6d6d6"
           stop-opacity="1.0000"
           id="stop3779" />
      </linearGradient>
      <linearGradient
         xlink:href="#grad6"
         id="grad7"
         x1="0"
         y1="0"
         x2="0"
         y2="1"
         gradientTransform="rotate(-82,0.5,0.5)"
         gradientUnits="objectBoundingBox" />
    </defs>
    <path
       d="m 282.5163,224.8083 c -3.8421,3.9763 -9.148,13.8545 -10.6138,22.4818 -1.1201,1.1452 -1.8148,1.8726 -1.8148,4.4966 0,2.624 2.7279,6.3161 6.0929,6.3161 3.365,0 6.0929,-3.3156 6.0929,-6.3161 0,-3.0005 -1.4162,-4.6832 -3.4663,-5.7003 -0.3962,-0.781 -0.3086,-1.671 0.0427,-4.148 1.3337,-5.3085 4.9787,-11.7882 7.9187,-13.983 6.1751,0.292 14.7243,5.2422 19.1918,10.2665 2.5686,-0.6081 3.8907,-0.4731 5.2172,-0.5502 -5.2664,-6.256 -14.1688,-14.5133 -28.6613,-12.8634 z"
       style="fill:#17e2ff;fill-opacity:0.54128436;stroke:#ffffff;stroke-width:0.76560003;stroke-linecap:round;stroke-linejoin:round;stroke-dasharray:none;stroke-opacity:1"
       id="path3785"
       inkscape:connector-curvature="0" />
    <path
       d="m 298.2734,251.7729 c 2.3086,-0.9052 6.2882,-2.3096 7.6807,0"
       style="fill:#17e2ff;fill-opacity:0.54128436;stroke:#ffffff;stroke-width:0.76560003;stroke-linecap:butt;stroke-linejoin:miter;stroke-dasharray:none;stroke-opacity:1"
       id="path3787"
       inkscape:connector-curvature="0" />
    <path
       d="m 305.4056,253.0525 c -1.6835,-1.5428 -3.8766,-1.3634 -5.2122,0 0.8428,1.1654 4.0707,1.6811 5.2122,0 z"
       style="fill:#17e2ff;fill-opacity:0.54128436;stroke:#ffffff;stroke-width:0.76560003;stroke-linecap:butt;stroke-linejoin:miter;stroke-dasharray:none;stroke-opacity:1"
       id="path3789"
       inkscape:connector-curvature="0" />
    <path
       d="m 293.5949,314.3078 c -0.2563,-5.4405 -4.5732,-17.7479 -5.2501,-26.4598 -1.553,5.91 -1.6948,12.406 -2.3923,18.7182 0.2503,1.9298 0.4817,3.1368 0.4817,3.1368 z"
       style="fill:#17e2ff;fill-opacity:0.54128436;fill-rule:evenodd;stroke:#ffffff;stroke-width:0.76560003;stroke-linecap:butt;stroke-linejoin:miter;stroke-dasharray:none;stroke-opacity:1"
       id="path3791"
       inkscape:connector-curvature="0" />
  </g>
  <path
     d="m 149.14223,310.60313 c 48.6104,0 88.01641,-36.66368 88.01641,-81.89128 0,-45.22751 -39.40601,-81.89119 -88.01641,-81.89119 -48.61049,0 -88.016498,36.66368 -88.016498,81.89119 0,45.2276 39.406008,81.89128 88.016498,81.89128 z m 0,-5.57051 c 45.30396,0 82.02924,-34.1695 82.02924,-76.32077 0,-42.15118 -36.72528,-76.32068 -82.02924,-76.32068 -45.30406,0 -82.029335,34.1695 -82.029335,76.32068 0,42.15127 36.725275,76.32077 82.029335,76.32077 z"
     style="fill:#17e2ff;fill-opacity:0.54128436;stroke:#ffffff;stroke-width:3.79490876;stroke-linecap:butt;stroke-linejoin:miter;stroke-dasharray:none;stroke-opacity:0.25082511"
     id="path3798"
     inkscape:connector-curvature="0" />
  <g
     id="Layer1004"
     style="fill:#17e2ff;fill-opacity:0.54128436;stroke:none"
     transform="matrix(1.017239,0,0,0.94644756,-138.42056,-159.31826)">
    <defs
       id="defs3808">
      <linearGradient
         id="grad8">
        <stop
           offset="866972714.0000%"
           stop-color="#bca758"
           stop-opacity="1.0000"
           id="stop3800" />
        <stop
           offset="12.0000%"
           stop-color="#000000"
           stop-opacity="1.0000"
           id="stop3802" />
        <stop
           offset="1581675980.0000%"
           stop-color="#d6d6d6"
           stop-opacity="1.0000"
           id="stop3804" />
      </linearGradient>
      <linearGradient
         xlink:href="#grad8"
         id="grad9"
         x1="0"
         y1="0"
         x2="0"
         y2="1"
         gradientTransform="rotate(-84,0.5,0.5)"
         gradientUnits="objectBoundingBox" />
    </defs>
    <path
       d="m 263.9671,376.8913 h 43.5263 v 6.8851 h -43.5263 z"
       style="fill:#17e2ff;fill-opacity:0.54128436;stroke:none;stroke-width:0.96579999;stroke-linecap:butt;stroke-linejoin:miter;stroke-dasharray:none"
       id="path3810"
       inkscape:connector-curvature="0" />
    <defs
       id="defs3820">
      <linearGradient
         id="grad10">
        <stop
           offset="866972714.0000%"
           stop-color="#bca758"
           stop-opacity="1.0000"
           id="stop3812" />
        <stop
           offset="12.0000%"
           stop-color="#000000"
           stop-opacity="1.0000"
           id="stop3814" />
        <stop
           offset="1581675980.0000%"
           stop-color="#d6d6d6"
           stop-opacity="1.0000"
           id="stop3816" />
      </linearGradient>
      <linearGradient
         xlink:href="#grad10"
         id="grad11"
         x1="0"
         y1="0"
         x2="0"
         y2="1"
         gradientTransform="rotate(-84,0.5,0.5)"
         gradientUnits="objectBoundingBox" />
    </defs>
    <path
       d="m 279.9501,386.9574 h 11.5607 v 6.1796 h -11.5607 z"
       style="fill:#17e2ff;fill-opacity:0.54128436;stroke:none;stroke-width:0.96579999;stroke-linecap:butt;stroke-linejoin:miter;stroke-dasharray:none"
       id="path3822"
       inkscape:connector-curvature="0" />
    <defs
       id="defs3832">
      <linearGradient
         id="grad12">
        <stop
           offset="866972714.0000%"
           stop-color="#bca758"
           stop-opacity="1.0000"
           id="stop3824" />
        <stop
           offset="12.0000%"
           stop-color="#000000"
           stop-opacity="1.0000"
           id="stop3826" />
        <stop
           offset="1581675980.0000%"
           stop-color="#d6d6d6"
           stop-opacity="1.0000"
           id="stop3828" />
      </linearGradient>
      <linearGradient
         xlink:href="#grad12"
         id="grad13"
         x1="0"
         y1="0"
         x2="0"
         y2="1"
         gradientTransform="rotate(-84,0.5,0.5)"
         gradientUnits="objectBoundingBox" />
    </defs>
    <path
       d="m 303.6432,407.6533 h -7.9327 v -5.2671 h -19.9601 v 5.2671 h -7.9328 V 396.318 h 35.8256 z"
       style="fill:#17e2ff;fill-opacity:0.54128436;stroke:none;stroke-width:0.96579999;stroke-linecap:butt;stroke-linejoin:miter;stroke-dasharray:none"
       id="path3834"
       inkscape:connector-curvature="0" />
    <defs
       id="defs3844">
      <linearGradient
         id="grad14">
        <stop
           offset="866972714.0000%"
           stop-color="#bca758"
           stop-opacity="1.0000"
           id="stop3836" />
        <stop
           offset="12.0000%"
           stop-color="#000000"
           stop-opacity="1.0000"
           id="stop3838" />
        <stop
           offset="1581675980.0000%"
           stop-color="#d6d6d6"
           stop-opacity="1.0000"
           id="stop3840" />
      </linearGradient>
      <linearGradient
         xlink:href="#grad14"
         id="grad15"
         x1="0"
         y1="0"
         x2="0"
         y2="1"
         gradientTransform="rotate(-84,0.5,0.5)"
         gradientUnits="objectBoundingBox" />
    </defs>
    <path
       d="m 318.8054,426.7552 h -14.6475 v -9.8527 H 267.303 v 9.8527 h -14.6475 v -15.9209 h 66.1499 z"
       style="fill:#17e2ff;fill-opacity:0.54128436;stroke:none;stroke-width:0.96579999;stroke-linecap:butt;stroke-linejoin:miter;stroke-dasharray:none"
       id="path3846"
       inkscape:connector-curvature="0" />
    <defs
       id="defs3856">
      <linearGradient
         id="grad16">
        <stop
           offset="866972714.0000%"
           stop-color="#bca758"
           stop-opacity="1.0000"
           id="stop3848" />
        <stop
           offset="12.0000%"
           stop-color="#000000"
           stop-opacity="1.0000"
           id="stop3850" />
        <stop
           offset="1581675980.0000%"
           stop-color="#d6d6d6"
           stop-opacity="1.0000"
           id="stop3852" />
      </linearGradient>
      <linearGradient
         xlink:href="#grad16"
         id="grad17"
         x1="0"
         y1="0"
         x2="0"
         y2="1"
         gradientTransform="rotate(-84,0.5,0.5)"
         gradientUnits="objectBoundingBox" />
    </defs>
    <path
       d="m 243.6518,357.7534 h 84.1569 v 15.9569 h -84.1569 z"
       style="fill:#17e2ff;fill-opacity:0.54128436;stroke:none;stroke-width:0.96579999;stroke-linecap:butt;stroke-linejoin:miter;stroke-dasharray:none"
       id="path3858"
       inkscape:connector-curvature="0" />
  </g>
  <path
     d="m 30.046018,204.72721 c -0.726308,0.0915 -1.214786,0.28819 -1.470012,0.59134 -0.250546,0.3058 -0.343725,0.7989 -0.281673,1.48999 l -0.564364,0.0712 -1.025072,-7.05889 0.575859,-0.0724 c 0.138446,0.74211 0.35349,1.2212 0.645947,1.44125 0.295813,0.2157 0.837086,0.27599 1.631142,0.17623 l 7.222092,-0.90764 c 1.80621,-0.22724 3.019878,-0.6044 3.641309,-1.12807 0.617566,-0.5232 0.849394,-1.32616 0.691417,-2.41515 -0.177915,-1.22527 -0.694876,-2.0942 -1.547526,-2.61115 -0.85326,-0.51676 -2.045362,-0.67718 -3.580783,-0.4843 l -7.36481,0.92582 c -0.74879,0.0942 -1.24449,0.29538 -1.482727,0.60714 -0.238441,0.31176 -0.323482,0.8607 -0.255734,1.64351 l -0.575859,0.0725 -0.661714,-4.55904 0.575859,-0.0721 c 0.160317,0.60364 0.402521,1.00475 0.722545,1.2035 0.323278,0.1945 0.833118,0.24816 1.540405,0.15938 l 6.612155,-0.83117 c 1.170435,-0.14698 2.032036,-0.20547 2.587958,-0.17566 0.5606,0.0329 1.073797,0.13629 1.548136,0.31517 0.870553,0.32227 1.577636,0.86439 2.118502,1.63385 0.540662,0.76653 0.893644,1.72055 1.059149,2.86206 0.274858,1.89091 0.0239,3.33055 -0.755504,4.32347 -0.779408,0.99291 -2.141796,1.60962 -4.087673,1.85437 z m 8.246553,-18.04506 c 0.823252,-0.0332 1.359846,-0.1822 1.606119,-0.44323 0.246274,-0.26453 0.374548,-0.77182 0.385229,-1.52538 l 0.591727,-0.0239 0.217995,4.68075 -0.592237,0.0132 c -0.06409,-0.71523 -0.230404,-1.19328 -0.5075,-1.42592 -0.273129,-0.23311 -0.824981,-0.33457 -1.656065,-0.30126 l -10.49394,0.42278 -0.834441,0.6876 c -0.02197,0.0223 -0.05513,0.0486 -0.09898,0.0857 -0.435378,0.364 -0.661409,0.73369 -0.681652,1.11681 l -0.568942,0.0228 -0.202939,-4.36313 9.37223,-7.78292 -7.079271,0.28517 c -0.823557,0.0333 -1.356387,0.1819 -1.598897,0.44293 -0.245968,0.26435 -0.370885,0.77164 -0.381464,1.5252 l -0.568942,0.0231 -0.217689,-4.68075 0.55765,-0.0225 c 0.06348,0.70832 0.233863,1.18581 0.51869,1.42564 0.28086,0.23992 0.837086,0.34479 1.667865,0.31128 l 13.138456,-0.52906 0.02736,0.58935 -11.793259,9.83615 z m -12.973764,-20.30244 0.569247,0.014 c 0.01607,0.78848 0.134377,1.31433 0.362442,1.57451 0.224607,0.26349 0.668937,0.40139 1.329532,0.41719 l 10.500347,0.25356 c 0.747976,0.018 1.26036,-0.10762 1.533692,-0.37319 0.273434,-0.26538 0.45908,-0.79435 0.557141,-1.58047 l 0.591932,0.0145 -0.204669,7.3432 -0.592033,-0.0145 c -0.06256,-0.76142 -0.219113,-1.2813 -0.473423,-1.55605 -0.258073,-0.27845 -0.732717,-0.42411 -1.431357,-0.44105 l -10.576132,-0.25516 c -0.660391,-0.0158 -1.116013,0.10382 -1.36249,0.36306 -0.250342,0.25563 -0.397639,0.77126 -0.449518,1.5445 l -0.557955,-0.0137 z m 0.55765,-1.06021 -0.566907,-0.0507 0.728954,-7.06902 0.578503,0.0515 c -0.06785,0.65788 -0.04099,1.13593 0.08128,1.43056 0.122272,0.2951 0.356644,0.46139 0.704743,0.49253 0.117084,0.0105 0.255225,0.002 0.41839,-0.0266 0.162962,-0.0278 0.385839,-0.0791 0.672701,-0.16014 l 8.248892,-2.34075 -7.621968,-3.51643 c -0.200396,-0.0891 -0.392146,-0.1556 -0.573519,-0.20737 -0.177915,-0.0513 -0.335079,-0.0832 -0.467218,-0.095 -0.35522,-0.0316 -0.622245,0.076 -0.80016,0.32255 -0.178221,0.25024 -0.30385,0.68996 -0.377396,1.32928 l -0.579318,-0.041 0.463963,-4.49837 0.578402,0.0515 c -0.04608,0.447 0.03805,0.8129 0.256649,1.09863 0.214841,0.28526 0.693452,0.60128 1.431663,0.95137 l 12.853832,5.97843 -0.05656,0.54865 -13.827533,4.08951 c -0.752045,0.22743 -1.271651,0.45789 -1.563496,0.698 -0.288591,0.24419 -0.481765,0.56399 -0.583896,0.96292 z m 16.235033,-13.1277 -0.562228,-0.0842 c 0.12624,-0.72923 0.0706,-1.2529 -0.167844,-1.56409 -0.238441,-0.3112 -0.758352,-0.52878 -1.556783,-0.6487 l -9.725517,-1.45819 c -0.948168,-0.14216 -1.596862,-0.10704 -1.952183,0.10117 -0.351456,0.20822 -0.589897,0.67369 -0.713695,1.38892 l -0.562228,-0.0845 2.066318,-11.92978 4.543803,0.68144 -0.08331,0.48127 c -1.354352,-0.0636 -2.381764,0.2262 -3.081014,0.86609 -0.695486,0.6398 -1.178776,1.74137 -1.44865,3.30036 -0.120848,0.69753 -0.112811,1.13914 0.02767,1.32834 0.140074,0.18938 0.516452,0.32804 1.123642,0.41899 l 4.768817,0.71504 c 0.0071,-0.0418 0.02218,-0.10382 0.04415,-0.18645 0.02187,-0.0826 0.03682,-0.1484 0.04354,-0.18673 0.152179,-0.87916 0.0081,-1.58048 -0.423375,-2.10717 -0.436497,-0.52339 -1.245609,-0.95961 -2.424182,-1.30459 l 0.08687,-0.50228 7.603251,1.1399 -0.08687,0.50228 c -1.304711,-0.0845 -2.258372,0.0695 -2.857526,0.46282 -0.602104,0.38927 -0.99252,1.11094 -1.173589,2.15723 l -0.02482,0.14301 4.993728,0.74874 c 0.659984,0.099 1.095363,0.0714 1.306745,-0.0828 0.210772,-0.15105 0.370885,-0.54222 0.479526,-1.17 0.262957,-1.51743 0.169269,-2.75208 -0.277096,-3.70638 -0.446364,-0.95459 -1.321495,-1.78708 -2.617356,-2.50042 l 0.10264,-0.59314 4.642475,1.58019 z M 31.294578,128.46795 c 0.598034,-2.04943 1.369101,-3.49116 2.318389,-4.33141 0.949796,-0.84007 2.08534,-1.09145 3.415787,-0.75555 0.893848,0.22592 1.572346,0.67907 2.034071,1.36317 0.462233,0.68068 0.690807,1.56949 0.686534,2.6633 l 6.704724,-2.12913 c 0.505161,-0.15427 0.861602,-0.30939 1.066576,-0.47351 0.205685,-0.1642 0.348709,-0.38444 0.430292,-0.66402 l 0.0178,-0.0614 0.571587,0.14462 -1.259545,4.31665 -8.166395,2.41855 -0.173032,0.59324 4.306277,1.08756 c 0.806162,0.20368 1.381716,0.2139 1.725441,0.033 0.340267,-0.18105 0.631807,-0.62721 0.876352,-1.33042 l 0.57179,0.14433 -2.011794,6.8944 -0.571587,-0.14433 c 0.175881,-0.68409 0.155435,-1.1947 -0.0648,-1.53221 -0.220944,-0.334 -0.714915,-0.59768 -1.480489,-0.79113 l -9.756034,-2.46417 c -0.707287,-0.17869 -1.23503,-0.17661 -1.586181,0.002 -0.351253,0.17841 -0.650016,0.608 -0.89395,1.28272 l -0.549614,-0.13903 z m 6.943266,2.90683 0.193988,-0.66507 c 0.305375,-1.04658 0.262447,-1.88466 -0.134073,-2.50875 -0.39245,-0.62267 -1.167485,-1.08198 -2.318287,-1.37254 -1.033515,-0.26103 -1.870296,-0.2527 -2.516141,0.0196 -0.642488,0.27342 -1.08163,0.80703 -1.314374,1.60489 -0.157367,0.53871 -0.171507,0.91218 -0.04232,1.1169 0.12919,0.20472 0.516656,0.38681 1.15772,0.54865 z m 11.056472,-8.10699 -5.397063,-1.75916 0.2183,-0.58027 c 1.666441,0.191 2.99882,0.0829 3.998868,-0.32889 1.000048,-0.41161 1.696348,-1.13914 2.088188,-2.17929 0.275163,-0.73028 0.273739,-1.38976 0.002,-1.98375 -0.271298,-0.59371 -0.760692,-1.0039 -1.466554,-1.23407 -0.498243,-0.16232 -0.97716,-0.17282 -1.439393,-0.0351 -0.458775,0.13866 -0.934639,0.44048 -1.425966,0.90168 l -1.695737,1.53268 c -1.044196,0.97711 -2.024814,1.61616 -2.942669,1.9158 -0.91755,0.30002 -1.863887,0.29113 -2.838809,-0.0268 -1.279381,-0.41691 -2.175874,-1.12495 -2.688868,-2.12317 -0.513604,-0.99831 -0.543205,-2.09402 -0.09145,-3.29458 0.257565,-0.68362 0.641878,-1.36289 1.155177,-2.04168 0.513299,-0.67898 0.786021,-1.06182 0.821217,-1.15514 0.06398,-0.17017 0.05452,-0.32652 -0.0234,-0.47171 -0.08067,-0.14973 -0.222572,-0.27466 -0.429886,-0.37612 l 0.211077,-0.5602 4.7088,1.53514 -0.188291,0.5001 c -1.312035,-0.10572 -2.470365,0.0743 -3.474685,0.5409 -1.004625,0.46622 -1.666339,1.12277 -1.985244,1.96974 -0.248613,0.66024 -0.256039,1.25688 -0.02716,1.79182 0.233049,0.53635 0.649405,0.90442 1.25863,1.10289 0.505568,0.16478 1.008999,0.15295 1.510396,-0.0354 0.501499,-0.18863 1.079901,-0.59153 1.729001,-1.21477 l 1.70296,-1.60518 c 1.012763,-0.95771 1.953303,-1.56438 2.822126,-1.82058 0.870248,-0.25886 1.813432,-0.221 2.827823,0.1095 1.394228,0.45449 2.335683,1.26682 2.827924,2.43815 0.495091,1.17586 0.45613,2.5184 -0.115354,4.03584 -0.24485,0.65002 -0.617973,1.2883 -1.117132,1.90832 -0.503737,0.62182 -0.769847,0.97673 -0.801279,1.06021 -0.0767,0.20339 -0.07955,0.37101 -0.01322,0.50493 0.0651,0.13705 0.228371,0.28034 0.482986,0.43783 z m -7.677001,-23.04079 0.527642,0.19904 c -0.282894,0.74372 -0.370478,1.27467 -0.255225,1.59287 0.110777,0.31999 0.474644,0.59446 1.087123,0.82521 l 9.735079,3.67013 c 0.693147,0.26132 1.220585,0.31119 1.576924,0.1521 0.356136,-0.15939 0.729564,-0.59399 1.118251,-1.29768 l 0.548699,0.20708 -2.964845,6.80799 -0.548699,-0.20708 c 0.228981,-0.73321 0.278825,-1.27118 0.144143,-1.61161 -0.136005,-0.34498 -0.525607,-0.63658 -1.173283,-0.88077 l -9.805371,-3.69644 c -0.612479,-0.23094 -1.083868,-0.26775 -1.412639,-0.10572 -0.33101,0.15749 -0.663444,0.5921 -1.004015,1.29909 l -0.517571,-0.19506 z m 14.892176,-1.236817 c 0.606376,0.277404 1.038601,0.380756 1.301354,0.308258 0.262956,-0.07297 0.512078,-0.336651 0.750214,-0.786876 0.648795,-1.22707 0.620312,-2.373786 -0.08677,-3.437782 -0.705557,-1.06693 -2.112195,-2.080765 -4.224593,-3.04775 -2.034377,-0.930926 -3.743949,-1.331747 -5.123732,-1.203219 -1.376629,0.130136 -2.380949,0.788769 -3.006043,1.971072 -0.244849,0.463096 -0.316971,0.815837 -0.215146,1.055478 0.09867,0.237937 0.457046,0.496601 1.070644,0.777223 z M 56.2681,104.57754 55.736694,104.3342 c 0.284624,-0.61821 0.371394,-1.07828 0.263872,-1.3873 -0.109353,-0.30589 -0.507195,-0.61812 -1.188643,-0.92988 l -9.128907,-4.178001 c -0.77361,-0.354161 -1.351809,-0.47701 -1.729509,-0.362489 -0.376277,0.111396 -0.747366,0.492626 -1.114793,1.139712 L 42.32745,98.38228 45.426977,92.520268 c 1.188339,-2.247719 2.696396,-3.699948 4.527731,-4.354038 1.827775,-0.655604 3.860727,-0.473791 6.095703,0.549508 2.29011,1.047906 3.717398,2.406248 4.277693,4.076255 0.565484,1.668208 0.251462,3.630951 -0.942065,5.888323 z m 6.547866,-13.066848 c 0.221758,-0.333717 0.288387,-0.689771 0.201922,-1.063428 -0.08626,-0.373753 -0.346879,-0.83524 -0.774831,-1.380394 l -8.519072,-10.76215 0.323279,-0.486758 13.794168,2.01139 c 1.061692,0.149728 1.782508,0.18645 2.162548,0.118306 0.376887,-0.07004 0.670157,-0.262355 0.876046,-0.572033 l 0.523065,0.301065 -3.824412,5.754969 -0.517266,-0.309867 c 0.322668,-0.512406 0.498549,-0.918338 0.523064,-1.223946 0.0297,-0.306933 -0.0883,-0.532282 -0.352982,-0.68466 -0.08413,-0.04855 -0.209348,-0.0955 -0.380345,-0.139979 -0.171202,-0.04458 -0.452672,-0.09853 -0.847157,-0.163452 l -1.821773,-0.308542 -2.662115,4.005745 1.054267,1.350297 c 0.141904,0.189384 0.291235,0.354444 0.440871,0.498778 0.148517,0.139222 0.286353,0.24759 0.412389,0.320088 0.296932,0.170834 0.586438,0.192034 0.868518,0.06332 0.281979,-0.128527 0.576673,-0.424197 0.880319,-0.880858 l 0.06978,-0.105151 0.523064,0.301065 -2.430286,3.657263 z M 60.88606,85.868445 63.174746,82.424701 57.434263,81.535892 Z M 73.230662,73.815246 c 0.525404,0.39571 0.922127,0.585378 1.195765,0.56872 0.273637,-0.01694 0.579622,-0.222699 0.91877,-0.61273 0.92467,-1.062671 1.17013,-2.186862 0.733836,-3.370205 -0.434259,-1.185804 -1.56431,-2.464455 -3.394526,-3.842672 -1.762062,-1.326919 -3.333594,-2.069786 -4.709919,-2.228884 -1.373069,-0.156921 -2.509528,0.278445 -3.400528,1.302785 -0.348913,0.400821 -0.503126,0.729995 -0.461013,0.98459 0.03947,0.252512 0.327551,0.578468 0.858957,0.978721 z m -1.565124,5.398915 -0.460504,-0.346589 c 0.424697,-0.544396 0.618787,-0.975219 0.587354,-1.29881 -0.03347,-0.320561 -0.347184,-0.707185 -0.937691,-1.151732 L 62.94719,70.461888 c -0.670157,-0.504836 -1.204716,-0.743908 -1.600626,-0.709836 -0.393264,0.03085 -0.845732,0.32624 -1.358116,0.881521 l -0.4426,-0.333149 4.417462,-5.07807 c 1.69411,-1.946937 3.510186,-3.052293 5.451892,-3.312851 1.938553,-0.262639 3.877512,0.333529 5.813724,1.79191 1.983617,1.493778 3.052226,3.112392 3.201048,4.856506 0.154214,1.743262 -0.619397,3.59262 -2.320424,5.548076 z m 19.259183,-23.23983 c 0.496616,0.611689 0.93291,0.938403 1.303693,0.978911 0.373734,0.03862 0.895578,-0.151053 1.568583,-0.570614 l 0.357051,0.440004 -4.018806,2.823158 -0.347693,-0.446439 c 0.596814,-0.454768 0.925281,-0.853696 0.974007,-1.197919 0.05137,-0.341478 -0.172117,-0.821989 -0.673311,-1.439357 L 83.758679,48.76259 82.676438,48.513863 c -0.03194,-0.0047 -0.07406,-0.01476 -0.131427,-0.02735 -0.569552,-0.126919 -1.025072,-0.0902 -1.375409,0.111586 l -0.343216,-0.422873 3.745982,-2.631597 12.206258,2.76287 -4.269962,-5.261397 c -0.496515,-0.611878 -0.930469,-0.935753 -1.29932,-0.973611 -0.373428,-0.03833 -0.893237,0.154082 -1.566039,0.573642 l -0.343115,-0.422778 4.018501,-2.823158 0.336503,0.414449 c -0.591118,0.450415 -0.91694,0.852087 -0.967496,1.206248 -0.05269,0.351416 0.170184,0.837038 0.671377,1.454311 l 7.924085,9.764499 -0.50597,0.355486 -15.397134,-3.451978 z m 11.486559,-5.888608 c 0.36794,-0.191561 0.61238,-0.47275 0.7318,-0.838363 0.11933,-0.365707 0.13265,-0.88701 0.0429,-1.556906 l -1.8296,-13.25727 0.537,-0.279296 11.00835,7.99114 c 0.8498,0.610364 1.46076,0.9685 1.82869,1.080654 0.3656,0.108936 0.72265,0.07326 1.06404,-0.104393 l 0.30049,0.49963 -6.34727,3.302534 -0.29032,-0.504362 c 0.54962,-0.30239 0.91491,-0.577617 1.09597,-0.83382 0.18636,-0.254595 0.20071,-0.50493 0.0488,-0.757916 -0.0482,-0.08026 -0.13295,-0.177837 -0.25929,-0.294061 -0.12655,-0.116413 -0.34424,-0.290559 -0.65541,-0.525562 l -1.43136,-1.092958 -4.41787,2.298921 0.21657,1.656662 c 0.0251,0.229608 0.0698,0.441329 0.12513,0.634972 0.0572,0.188911 0.12115,0.345832 0.19347,0.466314 0.17049,0.283556 0.4127,0.433 0.72611,0.447765 0.31372,0.01505 0.7258,-0.110261 1.22923,-0.372333 l 0.11597,-0.06038 0.30039,0.499535 -4.03346,2.098748 z m 1.25802,-5.804089 3.79817,-1.976467 -4.55418,-3.370962 z m 25.54908,-8.018209 c -0.36824,1.208329 -0.97665,2.234278 -1.81923,3.083147 -0.84228,0.848585 -1.8881,1.483651 -3.13523,1.900751 -1.04003,0.348009 -2.07009,0.501239 -3.08997,0.463097 -1.0208,-0.04155 -2.00549,-0.271536 -2.94948,-0.699141 -0.96953,-0.43035 -1.78495,-1.006074 -2.44697,-1.727267 -0.66212,-0.72053 -1.1976,-1.615586 -1.60846,-2.679298 -0.38177,-0.987808 -0.55826,-1.976183 -0.52764,-2.973644 0.0264,-0.99642 0.25746,-1.933592 0.69314,-2.811422 0.4366,-0.885591 1.03606,-1.642087 1.79879,-2.268824 0.76232,-0.626738 1.68251,-1.118228 2.75804,-1.478257 0.82528,-0.276079 1.7408,-0.413408 2.75112,-0.409717 1.009,2.84e-4 1.57448,-0.01959 1.69238,-0.05896 0.25004,-0.08376 0.43141,-0.230744 0.54382,-0.441328 0.1125,-0.210396 0.15024,-0.478335 0.11189,-0.795773 l 0.55765,-0.186451 1.80398,4.66788 -0.53609,0.179541 c -1.00808,-1.104599 -2.08076,-1.86488 -3.20674,-2.272705 -1.12741,-0.411515 -2.22003,-0.440192 -3.27073,-0.08878 -1.30054,0.435176 -2.06459,1.298999 -2.29276,2.587871 -0.23213,1.290481 0.0695,3.010461 0.89965,5.158329 0.76822,1.988486 1.70855,3.367176 2.82243,4.139856 1.11388,0.77268 2.38095,0.91919 3.79613,0.445871 0.89334,-0.298793 1.67356,-0.796246 2.33945,-1.495955 0.66955,-0.700749 1.1741,-1.556527 1.51528,-2.564494 z m 7.42503,-13.104324 0.0908,0.523102 c -0.82987,0.160706 -1.36361,0.366275 -1.59625,0.623046 -0.23651,0.254027 -0.29999,0.685701 -0.1947,1.292563 l 1.67529,9.647992 c 0.11942,0.686837 0.34688,1.132425 0.67799,1.333166 0.33101,0.200931 0.92416,0.272577 1.77244,0.216737 l 0.0943,0.544112 -7.79378,1.171608 -0.0946,-0.544113 c 0.79294,-0.197997 1.31285,-0.437259 1.55617,-0.720909 0.24628,-0.287341 0.31229,-0.748167 0.2007,-1.389953 l -1.68739,-9.717745 c -0.10529,-0.606673 -0.31606,-1.000773 -0.63557,-1.178327 -0.31626,-0.181623 -0.88836,-0.220806 -1.71425,-0.12531 l -0.0891,-0.51269 z m 3.43511,6.291037 c -0.0608,-1.122298 0.11312,-2.184969 0.52256,-3.187541 0.40944,-0.999354 1.03453,-1.884661 1.87833,-2.656773 0.67006,-0.611689 1.45791,-1.094661 2.35867,-1.448254 0.90077,-0.353877 1.86328,-0.554523 2.88723,-0.602792 1.05081,-0.04941 2.04211,0.07344 2.98214,0.36883 0.93596,0.291885 1.78607,0.747505 2.55683,1.358626 0.84685,0.681442 1.50256,1.47854 1.97436,2.397352 0.46823,0.915404 0.73211,1.922045 0.79182,3.019546 0.0608,1.122013 -0.11332,2.184401 -0.52307,3.179969 -0.40943,0.995947 -1.03402,1.88504 -1.87772,2.664061 -0.65571,0.603928 -1.43919,1.0869 -2.34748,1.444184 -0.90829,0.357662 -1.87457,0.558877 -2.89852,0.606862 -1.05081,0.04969 -2.04964,-0.07326 -2.9974,-0.368073 -0.94725,-0.291601 -1.80509,-0.75006 -2.57677,-1.371687 -0.82701,-0.665352 -1.47835,-1.458665 -1.94262,-2.377855 -0.46477,-0.922597 -0.72864,-1.929238 -0.78836,-3.026455 z m 11.92418,-0.55812 c -0.11759,-2.162822 -0.56141,-3.818727 -1.33472,-4.971027 -0.77015,-1.152489 -1.79583,-1.698778 -3.07786,-1.638395 -1.28955,0.06067 -2.22928,0.678224 -2.82355,1.848791 -0.59427,1.170471 -0.82783,2.883447 -0.70556,5.134667 0.1176,2.159415 0.56488,3.811817 1.33849,4.964023 0.77737,1.152016 1.80336,1.698305 3.08508,1.637922 1.28976,-0.06067 2.22582,-0.674439 2.81633,-1.841219 0.5905,-1.170567 0.82437,-2.879756 0.70179,-5.134762 z m 9.43062,5.151419 c -0.16123,0.751669 -0.13356,1.27212 0.0804,1.556528 0.21779,0.285732 0.71685,0.52206 1.50094,0.711255 l -0.11597,0.540327 -4.93798,-0.916445 0.12715,-0.538245 c 0.76181,0.112438 1.30044,0.07543 1.60928,-0.119347 0.30822,-0.191561 0.54554,-0.666204 0.7082,-1.424877 l 2.05482,-9.584485 -0.5196,-0.917486 c -0.0179,-0.02499 -0.0375,-0.06114 -0.0658,-0.109504 -0.27649,-0.480227 -0.60872,-0.772396 -1.00371,-0.881805 l 0.11129,-0.519695 4.60321,0.854264 5.89591,10.320821 1.38619,-6.465372 c 0.16114,-0.751953 0.13255,-1.268997 -0.0819,-1.550092 -0.21779,-0.285449 -0.71746,-0.518653 -1.50175,-0.70747 l 0.11128,-0.519694 4.93829,0.916445 -0.10925,0.509473 c -0.75438,-0.111302 -1.29362,-0.07079 -1.61192,0.129569 -0.31687,0.196955 -0.55887,0.674533 -0.72142,1.433205 l -2.5724,11.999062 -0.62173,-0.115372 -7.46369,-12.997091 z m 12.35518,4.117615 c 0.39937,0.125215 0.78755,0.104866 1.15894,-0.05821 0.3717,-0.163168 0.79558,-0.503889 1.26931,-1.015255 l 9.33368,-10.160398 0.58298,0.182664 1.02253,12.956015 c 0.0842,0.995853 0.20934,1.657419 0.36681,1.986594 0.15859,0.325483 0.42643,0.547614 0.79721,0.663743 l -0.19632,0.54222 -6.89159,-2.160266 0.207,-0.538908 c 0.60964,0.175945 1.07441,0.243332 1.39993,0.196104 0.32785,-0.0424 0.5372,-0.200457 0.63669,-0.474927 0.0314,-0.08717 0.0525,-0.211152 0.0603,-0.376402 0.008,-0.165534 3.1e-4,-0.432432 -0.0211,-0.804575 l -0.0902,-1.72102 -4.79709,-1.503716 -1.1741,1.261425 c -0.16642,0.171496 -0.30507,0.344507 -0.42215,0.512691 -0.1122,0.166101 -0.1944,0.315545 -0.2417,0.446155 -0.11159,0.308069 -0.068,0.575251 0.13072,0.801357 0.19866,0.226485 0.57494,0.426659 1.1216,0.59806 l 0.12604,0.03947 -0.19633,0.542125 -4.37952,-1.372822 z m 5.46837,-3.028443 4.12399,1.292847 -0.37109,-5.403458 z m 15.26927,8.627816 c -0.40995,0.685133 -0.57199,1.159493 -0.48126,1.420807 0.088,0.259989 0.45796,0.556701 1.10818,0.893636 1.43024,0.741258 2.68857,1.049516 3.77915,0.927235 1.08682,-0.124269 2.25542,-0.703779 3.50174,-1.740139 l 0.54412,0.281663 -3.30623,3.867942 -11.44617,-5.931576 0.28838,-0.481269 c 0.67128,0.323591 1.20879,0.427889 1.61395,0.310435 0.40161,-0.119442 0.79579,-0.501712 1.18193,-1.146716 l 4.91724,-8.213745 c 0.35847,-0.599101 0.48186,-1.080938 0.372,-1.449295 -0.11302,-0.369967 -0.48502,-0.736431 -1.11367,-1.102896 l 0.27709,-0.462812 6.9274,3.58997 -0.2771,0.462718 c -0.81725,-0.407256 -1.41894,-0.577617 -1.81027,-0.505403 -0.389,0.06947 -0.78602,0.442086 -1.19058,1.118228 z m 17.13732,11.124639 c -0.44718,0.471331 -0.66781,0.832496 -0.66151,1.087374 0.006,0.255162 0.21454,0.548088 0.61889,0.879912 1.10208,0.904709 2.29866,1.180504 3.5879,0.825303 1.2918,-0.353309 2.71278,-1.349445 4.27047,-2.992194 1.49972,-1.581798 2.36417,-3.011218 2.59346,-4.283717 0.22664,-1.269754 -0.19267,-2.34454 -1.25467,-3.216407 -0.41574,-0.341289 -0.76262,-0.498494 -1.03799,-0.470385 -0.27252,0.02603 -0.63465,0.280149 -1.08712,0.757158 z m -5.73122,-1.684298 0.39184,-0.413124 c 0.5666,0.417667 1.021,0.616516 1.36971,0.601183 0.34596,-0.0177 0.77422,-0.292925 1.27653,-0.822841 l 6.73067,-7.097694 c 0.57036,-0.601468 0.8498,-1.088415 0.83016,-1.457908 -0.0168,-0.366938 -0.31463,-0.799938 -0.88927,-1.30004 l 0.37689,-0.397319 5.26523,4.322331 c 2.01902,1.657135 3.12862,3.392447 3.32586,5.208206 0.20009,1.813015 -0.52245,3.59016 -2.17068,5.328122 -1.68831,1.780551 -3.47174,2.705325 -5.35099,2.769495 -1.87853,0.06947 -3.83153,-0.728197 -5.85929,-2.392336 z m 12.29791,10.29593 0.41747,-0.360313 c 0.53985,0.541652 1.01734,0.82341 1.4279,0.840257 0.41035,0.01694 0.91501,-0.230176 1.50806,-0.741731 l 7.22412,-6.231222 c 0.70444,-0.607619 1.07411,-1.104788 1.11652,-1.49321 0.0401,-0.386151 -0.20741,-0.847544 -0.73648,-1.378785 l 0.41748,-0.360029 8.82994,8.861494 -3.3752,2.911084 -0.35634,-0.357568 c 0.88785,-0.953735 1.27511,-1.88504 1.16403,-2.791831 -0.11363,-0.903858 -0.74879,-1.936432 -1.90254,-3.094316 -0.51646,-0.518369 -0.89528,-0.784226 -1.14216,-0.797666 -0.24648,-0.01391 -0.5957,0.176323 -1.04694,0.565597 l -3.54213,3.055228 c 0.0311,0.03104 0.0744,0.08045 0.13092,0.147267 0.0564,0.06682 0.10264,0.11859 0.13122,0.146983 0.65053,0.653049 1.33299,0.979479 2.04496,0.987334 0.71217,0.0028 1.57987,-0.321981 2.59772,-0.97361 l 0.3717,0.3729 -5.64761,4.87146 -0.3717,-0.3729 c 0.87513,-0.904331 1.33187,-1.698495 1.36788,-2.379653 0.041,-0.680875 -0.32958,-1.411721 -1.10401,-2.188944 l -0.10589,-0.106192 -3.70936,3.199466 c -0.49021,0.422873 -0.73526,0.759335 -0.73445,1.009292 -0.002,0.247401 0.23071,0.605537 0.69528,1.071852 1.12314,1.127314 2.22633,1.818694 3.30939,2.07944 1.08305,0.260557 2.32703,0.131745 3.7293,-0.378768 l 0.43883,0.440476 -4.19692,2.42991 z m 33.96195,17.125117 -0.47668,0.290275 c -0.4956,-0.639798 -0.9146,-1.009765 -1.26148,-1.102895 -0.34576,-0.09739 -0.79528,0.02442 -1.34805,0.361164 l -8.78864,5.352729 c -0.6257,0.38104 -0.97034,0.755833 -1.0326,1.118796 -0.0623,0.363246 0.10865,0.89638 0.50893,1.594385 l -0.4957,0.301823 -4.32408,-6.145852 0.4957,-0.301822 c 0.51727,0.593233 0.96394,0.937645 1.34133,1.028599 0.38238,0.09228 0.8616,-0.03918 1.44641,-0.395426 l 8.85181,-5.391155 c 0.55277,-0.336746 0.85377,-0.676331 0.89823,-1.020081 0.0493,-0.342519 -0.14506,-0.844799 -0.57525,-1.507691 l 0.46681,-0.284407 z m -8.66037,10.213305 c -0.72661,0.361164 -1.14155,0.711539 -1.24215,1.045824 -0.0992,0.337504 0.0211,0.846408 0.36153,1.530595 l -0.52246,0.259422 -2.37169,-4.132664 0.52764,-0.250335 c 0.39021,0.619166 0.76242,0.983264 1.12029,1.081695 0.35471,0.100418 0.89964,-0.03029 1.63317,-0.394574 l 9.26593,-4.603237 0.43284,-0.955912 c 0.009,-0.02868 0.0267,-0.06578 0.0492,-0.116697 0.22318,-0.503605 0.25523,-0.927992 0.0958,-1.281301 l 0.50231,-0.249578 2.21076,3.852325 -4.83361,10.788272 6.25083,-3.105105 c 0.72692,-0.361164 1.13809,-0.709646 1.23584,-1.042607 0.099,-0.337503 -0.0245,-0.845083 -0.36498,-1.528702 l 0.50231,-0.249767 2.37169,4.132947 -0.49254,0.244657 c -0.38615,-0.613298 -0.76181,-0.97522 -1.13005,-1.076868 -0.36509,-0.103068 -0.91521,0.02603 -1.64874,0.390315 l -11.60039,5.763017 -0.29877,-0.52046 6.06234,-13.613507 z m 10.32965,24.592022 c -0.76008,-0.71306 -1.42474,-1.47201 -1.99338,-2.28331 -0.57209,-0.81053 -1.03514,-1.65212 -1.39534,-2.53023 -0.88002,-2.14541 -0.89701,-4.10985 -0.045,-5.88719 0.85062,-1.78064 2.42073,-3.07567 4.71623,-3.89065 1.01124,-0.35899 2.04007,-0.54648 3.08773,-0.55917 1.04379,-0.0115 2.0066,0.14576 2.87919,0.47891 0.98845,0.37914 1.85605,0.92912 2.59508,1.65022 0.73882,0.7212 1.30888,1.56628 1.70825,2.53989 0.33558,0.81877 0.52215,1.70919 0.55592,2.67315 0.0369,0.96234 0.0638,1.4632 0.0828,1.50967 0.0839,0.20463 0.2182,0.3536 0.40832,0.44105 0.18677,0.0888 0.49184,0.13922 0.91206,0.15266 l 0.21942,0.53493 -5.00268,1.77601 -0.21108,-0.51505 c 1.15375,-0.94276 1.94669,-1.94297 2.38298,-3.00914 0.43538,-1.06986 0.45908,-2.07272 0.0729,-3.01358 -0.48583,-1.18505 -1.4279,-1.87558 -2.82009,-2.0696 -1.39362,-0.19715 -3.22343,0.10865 -5.48699,0.91219 -2.1713,0.77107 -3.70936,1.69906 -4.62081,2.78643 -0.91124,1.08785 -1.11682,2.24204 -0.61716,3.46031 0.29104,0.70965 0.64015,1.16432 1.04532,1.36856 0.40456,0.20387 0.94237,0.18693 1.61649,-0.0523 l 1.7878,-0.63478 c 0.67067,-0.23794 1.06515,-0.52556 1.18163,-0.86571 0.11423,-0.33561 0.024,-0.91219 -0.26957,-1.72727 l 0.51096,-0.18134 2.72142,6.63498 -0.50028,0.17783 c -0.28686,-0.62058 -0.58593,-1.00228 -0.89873,-1.14075 -0.31057,-0.14301 -0.8022,-0.0933 -1.47642,0.14623 z m 0.32898,2.65497 0.54931,-0.13922 c 0.20853,0.71258 0.49163,1.16811 0.84695,1.36023 0.35522,0.19175 0.92528,0.19043 1.70581,-0.008 l 9.50498,-2.407 c 0.9267,-0.23482 1.50195,-0.51572 1.73327,-0.84196 0.22776,-0.32482 0.23844,-0.84026 0.034,-1.53912 l 0.54931,-0.13922 3.4109,11.65967 -4.44055,1.12457 -0.13784,-0.47058 c 1.26179,-0.46224 2.06886,-1.12059 2.42215,-1.97183 0.34942,-0.85019 0.3007,-2.03893 -0.14475,-3.56252 -0.19959,-0.68201 -0.40283,-1.08094 -0.61482,-1.19924 -0.21159,-0.11859 -0.61564,-0.10061 -1.2096,0.0499 l -4.66058,1.18022 c 0.0121,0.041 0.0262,0.10325 0.0429,0.18692 0.0165,0.0835 0.0321,0.14916 0.0429,0.18673 0.25116,0.85909 0.69356,1.44286 1.32038,1.75652 0.62977,0.30929 1.56024,0.39599 2.78693,0.25724 l 0.14363,0.49092 -7.43083,1.88182 -0.14363,-0.49073 c 1.22577,-0.4241 2.02593,-0.93064 2.39712,-1.51905 0.37567,-0.58566 0.41117,-1.39288 0.1118,-2.41562 l -0.0406,-0.13979 -4.88092,1.23606 c -0.64482,0.16308 -1.02944,0.35568 -1.15344,0.57762 -0.12482,0.21835 -0.0971,0.63582 0.0825,1.2496 0.43365,1.48308 1.06688,2.57149 1.89675,3.26931 0.82986,0.6981 1.99653,1.1204 3.4934,1.27221 l 0.16957,0.5798 -4.92944,0.34365 z m 7.26248,15.74671 c -0.808,0.14945 -1.31438,0.3729 -1.51477,0.66564 -0.2001,0.29643 -0.24363,0.81612 -0.13092,1.56249 l -0.58075,0.10752 -0.98234,-4.5952 0.58298,-0.0968 c 0.18056,0.69782 0.42337,1.14643 0.73536,1.33714 0.30822,0.19156 0.87025,0.21381 1.68597,0.0628 l 10.30219,-1.90643 0.71197,-0.79814 c 0.0179,-0.0249 0.0464,-0.0555 0.0836,-0.0984 0.37048,-0.42173 0.53344,-0.81905 0.49072,-1.20056 l 0.55857,-0.10326 0.91551,4.28315 -7.98706,9.02153 6.94988,-1.28612 c 0.8082,-0.14973 1.31021,-0.37215 1.50745,-0.6645 0.19989,-0.29624 0.23997,-0.81508 0.12695,-1.56145 l 0.55847,-0.10326 0.98244,4.59491 -0.54757,0.10136 c -0.17853,-0.69109 -0.42531,-1.13886 -0.74625,-1.33553 -0.31687,-0.19714 -0.88378,-0.22185 -1.6995,-0.0708 l -12.89768,2.38665 -0.12369,-0.57866 10.0432,-11.39409 z m 16.32638,18.32323 -0.56518,0.0655 c -0.14241,-0.7775 -0.34373,-1.28101 -0.61096,-1.50665 -0.26448,-0.22913 -0.7261,-0.30371 -1.38151,-0.22781 l -10.42365,1.20805 c -0.74217,0.0861 -1.22892,0.28147 -1.45648,0.58225 -0.22776,0.3004 -0.32602,0.84934 -0.29693,1.64001 l -0.58796,0.0681 -0.97605,-7.28925 0.58797,-0.0682 c 0.18361,0.74419 0.42205,1.23644 0.71766,1.47286 0.29988,0.23955 0.79263,0.31763 1.48588,0.23718 l 10.49882,-1.21694 c 0.65541,-0.0762 1.08652,-0.25762 1.28864,-0.54837 0.2065,-0.28734 0.26967,-0.81773 0.19674,-1.58937 l 0.55388,-0.0644 z m -14.99228,2.61901 0.56783,-0.0413 c 0.062,0.73615 0.24881,1.23275 0.55938,1.48309 0.31056,0.25005 0.87086,0.34763 1.67732,0.28866 l 9.82073,-0.71636 c 0.95753,-0.0698 1.57896,-0.24627 1.87162,-0.52632 0.28869,-0.27987 0.40232,-0.78423 0.34139,-1.50646 l 0.56782,-0.0416 1.01531,12.04704 -4.58826,0.33448 -0.041,-0.4861 c 1.33218,-0.23528 2.25695,-0.74211 2.77452,-1.51744 0.51391,-0.77447 0.70414,-1.95091 0.57159,-3.52523 -0.0594,-0.70453 -0.17944,-1.13157 -0.36366,-1.2848 -0.18422,-0.15323 -0.58481,-0.20548 -1.19841,-0.16071 l -4.8151,0.35142 c 0.003,0.0421 0.005,0.10572 0.004,0.19109 -3.1e-4,0.085 0.002,0.15209 0.005,0.1907 0.0747,0.88777 0.39215,1.53808 0.94553,1.9547 0.55683,0.41322 1.45353,0.65977 2.68652,0.73643 l 0.0427,0.50711 -7.67792,0.55992 -0.0427,-0.50711 c 1.28925,-0.20415 2.17709,-0.56285 2.65977,-1.07658 0.48614,-0.51033 0.68288,-1.2972 0.59376,-2.35391 l -0.0121,-0.14434 -5.04276,0.36779 c -0.66639,0.0486 -1.08275,0.17093 -1.24886,0.36751 -0.16663,0.19298 -0.22319,0.608 -0.16948,1.24221 0.12889,1.53211 0.53283,2.71129 1.20848,3.54104 0.67555,0.82956 1.73704,1.44665 3.17735,1.85551 l 0.0505,0.59901 -4.91184,-0.51724 z m 16.57164,20.28067 c 0.0198,2.12326 -0.30334,3.70534 -0.97319,4.75324 -0.67016,1.04763 -1.69035,1.57537 -3.06901,1.58634 -0.9264,0.008 -1.7113,-0.25809 -2.3543,-0.8005 -0.6431,-0.539 -1.1214,-1.33714 -1.43512,-2.39129 l -5.83631,3.73619 c -0.44168,0.2758 -0.73963,0.51477 -0.88927,0.72432 -0.15024,0.20983 -0.22399,0.4577 -0.22114,0.74741 l 6.1e-4,0.0636 -0.59234,0.005 -0.0418,-4.4731 7.15953,-4.38271 -0.006,-0.61463 -4.46192,0.0363 c -0.83536,0.007 -1.3925,0.14197 -1.67071,0.40215 -0.27506,0.25999 -0.42622,0.76302 -0.45735,1.50163 l -0.59224,0.005 -0.0666,-7.14388 0.59224,-0.005 c 0.0292,0.70283 0.19724,1.18931 0.5075,1.45885 0.31005,0.26615 0.86191,0.39581 1.65545,0.38937 l 10.10871,-0.0816 c 0.73272,-0.007 1.24022,-0.14083 1.52658,-0.40139 0.28604,-0.25999 0.4489,-0.74873 0.48786,-1.45942 l 0.56925,-0.005 z m -7.52919,-1.05217 0.006,0.68892 c 0.0102,1.08472 0.295,1.88097 0.85814,2.38183 0.55887,0.50067 1.43858,0.74769 2.63099,0.73804 1.07095,-0.009 1.87396,-0.22696 2.41665,-0.65163 0.53894,-0.42496 0.80678,-1.04895 0.79904,-1.87586 -0.005,-0.55831 -0.0998,-0.92127 -0.2838,-1.08576 -0.18362,-0.16469 -0.60984,-0.24248 -1.2742,-0.23709 z m 7.02881,17.73302 -0.56833,-0.0322 c 0.0133,-0.78849 -0.0854,-1.31802 -0.30334,-1.5853 -0.21484,-0.2704 -0.65368,-0.42278 -1.31315,-0.46007 l -10.48469,-0.59295 c -0.74655,-0.0421 -1.26361,0.0668 -1.54671,0.32331 -0.2832,0.25649 -0.48817,0.7794 -0.61563,1.56145 l -0.59112,-0.0333 0.47892,-7.33222 0.59111,0.0336 c 0.0341,0.76293 0.171,1.28774 0.41524,1.57053 0.24739,0.28649 0.71624,0.44748 1.41376,0.48695 l 10.56037,0.59711 c 0.65937,0.0373 1.11906,-0.0676 1.3751,-0.31866 0.2598,-0.24741 0.42622,-0.7582 0.50689,-1.52899 l 0.55714,0.0314 z m -14.99858,-0.51988 c -0.0446,0.39003 0.0608,0.73804 0.3126,1.04014 0.25177,0.30182 0.70129,0.61302 1.34052,0.93225 l 12.68629,6.27145 -0.0651,0.569 -13.3712,3.74121 c -1.02619,0.29274 -1.6934,0.5497 -2.00457,0.76436 -0.30711,0.21465 -0.48187,0.50625 -0.52337,0.86817 l -0.61157,-0.0607 0.77046,-6.72802 0.61045,0.0711 c -0.0525,0.59191 -0.0219,1.0286 0.0981,1.31405 0.11586,0.28848 0.32694,0.44436 0.63669,0.47521 0.0983,0.01 0.23294,0.002 0.40801,-0.0272 0.17497,-0.0287 0.45359,-0.0933 0.83963,-0.19393 l 1.78576,-0.45534 0.53639,-4.68311 -1.57814,-0.79275 c -0.21627,-0.11357 -0.42765,-0.20206 -0.62957,-0.2721 -0.19867,-0.0657 -0.37333,-0.1078 -0.52072,-0.12257 -0.34719,-0.0343 -0.61818,0.0633 -0.81227,0.29265 -0.1946,0.22941 -0.32267,0.61471 -0.38411,1.14851 l -0.0138,0.12323 -0.61157,-0.0607 0.4896,-4.27567 z m 4.36426,4.30917 -0.46111,4.02609 5.58851,-1.51015 z"
     style="fill:#17e2ff;fill-opacity:0.54128436;fill-rule:evenodd;stroke-width:0.98120505"
     id="path3863"
     inkscape:connector-curvature="0" />
  <path
     d="m 73.917197,131.84327 0.398554,-1.92659 c 0.778798,0.10118 1.395855,0.0325 1.857784,-0.20869 0.46203,-0.24125 0.787851,-0.65172 0.980109,-1.23095 0.203346,-0.61197 0.202228,-1.11927 -0.0041,-1.51848 -0.206194,-0.3995 -0.516147,-0.65967 -0.930265,-0.77883 -0.267025,-0.0768 -0.514417,-0.0753 -0.746246,0 -0.228981,0.0768 -0.467727,0.25895 -0.711966,0.54572 -0.168353,0.19525 -0.499159,0.65513 -0.997911,1.38002 -0.642794,0.93234 -1.252628,1.541 -1.832251,1.82541 -0.813384,0.40054 -1.666644,0.47142 -2.559984,0.21465 -0.573824,-0.16496 -1.068304,-0.45685 -1.478658,-0.87167 -0.410049,-0.41692 -0.659782,-0.91806 -0.751435,-1.50637 -0.09145,-0.58869 -0.0179,-1.24297 0.223488,-1.96946 0.392756,-1.18268 1.000861,-1.9848 1.825232,-2.40171 0.825591,-0.4188 1.762468,-0.49177 2.818362,-0.22241 l -0.557651,1.9386 c -0.60902,-0.0858 -1.083359,-0.0314 -1.425863,0.16204 -0.342607,0.19317 -0.604139,0.55698 -0.78124,1.09002 -0.182798,0.55055 -0.190224,1.02112 -0.02075,1.41011 0.109354,0.25091 0.308834,0.41909 0.602104,0.50361 0.267331,0.0768 0.526828,0.0477 0.778595,-0.0874 0.323177,-0.16989 0.768422,-0.68116 1.338483,-1.53297 0.567212,-0.85237 1.067185,-1.45894 1.492188,-1.82172 0.427647,-0.36429 0.923348,-0.60279 1.491679,-0.71466 0.568332,-0.11159 1.207361,-0.0655 1.917496,0.13865 0.644522,0.18541 1.200138,0.50919 1.663287,0.97286 0.463352,0.46385 0.741059,1.00929 0.830983,1.63811 0.09226,0.62967 3.05e-4,1.35588 -0.272824,2.1774 -0.396723,1.19545 -1.029344,2.01962 -1.899897,2.47145 -0.867908,0.4526 -1.950963,0.55831 -3.247739,0.32331 z m 5.47122,-15.53556 1.430543,-1.55283 c 1.085597,0.72488 1.780779,1.51762 2.090223,2.37804 0.306799,0.85881 0.249732,1.78112 -0.174762,2.7676 -0.525607,1.22177 -1.454143,2.04035 -2.785709,2.45783 -1.331057,0.4153 -2.857628,0.30334 -4.581034,-0.33864 -1.820654,-0.67851 -3.065755,-1.60167 -3.734488,-2.76684 -0.668428,-1.16508 -0.72519,-2.39309 -0.170693,-3.68083 0.48441,-1.12542 1.274804,-1.89138 2.368845,-2.29807 0.648795,-0.24494 1.455262,-0.30665 2.424182,-0.1892 l -0.270789,2.02928 c -0.612174,-0.10136 -1.15772,-0.0416 -1.634398,0.18059 -0.477797,0.2243 -0.821217,0.58301 -1.032904,1.07507 -0.293779,0.68276 -0.24251,1.3449 0.158587,1.98555 0.39713,0.64226 1.248051,1.20511 2.551643,1.69073 1.380088,0.51402 2.455309,0.67151 3.220578,0.47247 0.769033,-0.20018 1.295352,-0.63478 1.583638,-1.30449 0.212501,-0.49414 0.210263,-0.98942 -0.01119,-1.48384 -0.221453,-0.49471 -0.696707,-0.96954 -1.432272,-1.42242 z m 5.738754,-1.71089 -10.576438,-4.83152 0.949796,-1.79967 10.576438,4.83152 z m 1.687701,-3.55798 -10.278285,-5.35926 3.851267,-6.393727 1.737343,0.905747 -2.797611,4.64451 2.281972,1.19015 2.601487,-4.31892 1.737037,0.90575 -2.601181,4.31883 2.78459,1.45194 2.899436,-4.81325 1.736936,0.90575 z m 4.794451,-8.06648 -9.718295,-6.197621 1.179387,-1.600916 8.989036,0.792271 -6.512771,-4.15358 1.125778,-1.528418 9.7186,6.197906 -1.217126,1.652119 -8.82699,-0.764351 6.388668,4.07417 z m 7.674763,-9.969972 -7.670186,-5.661933 -1.958693,2.296839 -1.559733,-1.151543 5.247122,-6.153613 1.559936,1.151543 -1.949233,2.286049 7.670491,5.661555 z m 4.195194,-4.729872 -8.538601,-7.553787 1.48466,-1.453081 8.539011,7.553598 z m 9.78462,-9.113059 -1.67244,1.497564 -2.52215,-1.205207 -3.07531,2.753973 1.22262,2.368675 -1.64193,1.470495 -5.19321,-10.564531 1.6402,-1.468792 z m -6.07872,-0.591625 -4.0894,-1.969178 1.98881,3.850432 z m 83.95437,0.942473 7.71677,-8.284066 5.95309,4.800666 -1.30451,1.399985 -4.32388,-3.487186 -1.71364,1.83961 4.02074,3.242529 -1.3042,1.399891 -4.02074,-3.24253 -2.09114,2.244501 4.48186,3.61401 -1.30421,1.399985 z m 8.89382,7.868008 7.27743,-6.094082 -2.10813,-2.17929 1.48009,-1.239467 5.64791,5.838445 -1.48008,1.239468 -2.09806,-2.168785 -7.27733,6.094271 z m 4.4729,4.719082 9.29278,-6.588979 1.30644,1.594954 -7.70904,5.466018 3.23441,3.948863 -1.58363,1.122771 z m 10.71834,14.223405 -1.31569,-1.77923 1.68912,-2.11891 -2.41899,-3.27177 -2.71135,0.736147 -1.29159,-1.746764 12.04909,-3.045857 1.29007,1.745249 z m 1.61792,-5.48344 2.75438,-3.433234 -4.40688,1.198108 z m 9.37518,1.66765 1.86704,3.55826 c 0.37119,0.70633 0.61136,1.2459 0.72377,1.62335 0.11108,0.38018 0.12776,0.75498 0.052,1.12788 -0.0784,0.37422 -0.25207,0.73539 -0.52368,1.08444 -0.2716,0.34905 -0.63781,0.62806 -1.09373,0.83543 -0.49306,0.22374 -1.00778,0.31923 -1.53634,0.28251 -0.53171,-0.0357 -0.99944,-0.20017 -1.40745,-0.48912 0.094,0.62645 -0.009,1.18637 -0.30934,1.6843 -0.30161,0.49603 -0.75785,0.88294 -1.37144,1.16167 -0.48299,0.21948 -1.00005,0.33911 -1.55475,0.35766 -0.5548,0.0187 -1.05457,-0.0725 -1.49972,-0.27561 -0.44178,-0.20197 -0.8204,-0.52736 -1.13554,-0.97673 -0.19348,-0.28148 -0.59753,-0.9932 -1.20848,-2.13396 l -1.58995,-3.03033 z m -0.8143,2.60131 -2.43974,1.10848 0.61705,1.17643 c 0.36651,0.6981 0.60729,1.12731 0.72092,1.28594 0.20274,0.28753 0.45562,0.47265 0.75744,0.55367 0.30191,0.0808 0.62143,0.0435 0.96108,-0.11102 0.32786,-0.14887 0.55135,-0.34526 0.67677,-0.58945 0.12512,-0.24408 0.1298,-0.52584 0.0153,-0.84319 -0.0689,-0.18919 -0.32491,-0.70642 -0.76751,-1.54961 z m -4.19957,1.90803 -2.83911,1.28963 0.87401,1.66518 c 0.33915,0.64605 0.57759,1.04819 0.71085,1.20303 0.19917,0.2404 0.45409,0.3941 0.76608,0.46007 0.31514,0.0647 0.65775,0.0143 1.03494,-0.1572 0.32002,-0.14538 0.555,-0.33154 0.7084,-0.56286 0.15462,-0.22932 0.2183,-0.49177 0.19124,-0.78205 -0.0274,-0.29027 -0.25522,-0.84584 -0.6846,-1.66413 z m 4.36253,6.75859 c 1.11012,-0.426 2.10579,-0.6433 2.98529,-0.65438 0.64676,-0.007 1.27247,0.0875 1.87335,0.27826 0.60099,0.19099 1.10238,0.45959 1.50816,0.80514 0.53914,0.46111 0.97604,1.064 1.30644,1.80951 0.59895,1.35115 0.57759,2.62091 -0.0591,3.81504 -0.64015,1.19309 -1.84721,2.13017 -3.62483,2.81218 -1.76216,0.67605 -3.31976,0.80297 -4.66984,0.38094 -1.35272,-0.42097 -2.32643,-1.30628 -2.92243,-2.65062 -0.60352,-1.36156 -0.58999,-2.63595 0.0453,-3.81957 0.63262,-1.18259 1.81801,-2.10897 3.55769,-2.7765 z m 0.91776,1.87661 c -1.23473,0.47379 -2.06337,1.07375 -2.4899,1.79835 -0.42388,0.72356 -0.47291,1.45545 -0.14648,2.19273 0.32785,0.73965 0.91297,1.22309 1.75494,1.45592 0.8437,0.2297 1.89674,0.10221 3.16198,-0.38312 1.24978,-0.47966 2.08077,-1.06779 2.48939,-1.7656 0.41209,-0.69697 0.44779,-1.42592 0.10874,-2.19103 -0.33823,-0.76274 -0.92304,-1.25877 -1.75117,-1.48706 -0.83048,-0.22724 -1.87233,-0.10174 -3.1275,0.37981 z m -1.76847,10.70007 11.16562,-3.50063 1.44519,3.99022 c 0.36305,1.00286 0.52591,1.76399 0.49021,2.28123 -0.0347,0.51912 -0.2596,0.99339 -0.6725,1.42695 -0.41575,0.43442 -0.95071,0.75527 -1.611,0.96207 -0.83943,0.26321 -1.605,0.27475 -2.30049,0.033 -0.69518,-0.24172 -1.26117,-0.75015 -1.70184,-1.52653 -0.13519,0.49736 -0.32551,0.9315 -0.57006,1.30251 -0.24393,0.37318 -0.72,0.92127 -1.42505,1.6435 l -1.76328,1.82731 -0.8203,-2.26485 1.94577,-2.12326 c 0.68888,-0.75839 1.11388,-1.2636 1.2745,-1.51574 0.15859,-0.24929 0.24536,-0.48808 0.25604,-0.71532 0.009,-0.22904 -0.0646,-0.56096 -0.22288,-0.99775 l -0.13895,-0.38444 -4.66262,1.46188 z m 7.1286,-0.11916 0.50781,1.40235 c 0.32928,0.90868 0.58074,1.45971 0.75408,1.65827 0.17242,0.19639 0.39591,0.32596 0.66517,0.38255 0.27018,0.0588 0.57383,0.0341 0.90921,-0.0711 0.37689,-0.11812 0.64768,-0.29785 0.8204,-0.53957 0.17039,-0.24069 0.2298,-0.52424 0.17904,-0.84887 -0.0306,-0.16336 -0.18453,-0.62806 -0.46193,-1.39478 l -0.53578,-1.47854 z"
     style="fill:#17e2ff;fill-opacity:0.54128436;fill-rule:evenodd;stroke-width:0.98120505"
     id="path3867"
     inkscape:connector-curvature="0" />
  <g
     id="Layer1005"
     style="fill:#17e2ff;fill-opacity:0.54128436;stroke:none"
     transform="matrix(1.017239,0,0,0.94644756,-138.42056,-159.31826)">
    <g
       id="Layer1006"
       style="fill:#17e2ff;fill-opacity:0.54128436;stroke:none">
      <path
         d="m 272.0744,429.2325 h 8.6329 v 17.4895 h -8.6329 z"
         style="fill:#17e2ff;fill-opacity:0.54128436;fill-rule:evenodd;stroke:none;stroke-width:1.06579995;stroke-linecap:butt;stroke-linejoin:miter;stroke-dasharray:none"
         id="path3869"
         inkscape:connector-curvature="0" />
      <path
         d="m 273.8245,488.3803 h 5.133 V 446.722 h -5.133 z"
         style="fill:#17e2ff;fill-opacity:0.54128436;fill-rule:evenodd;stroke:none;stroke-width:1.06579995;stroke-linecap:butt;stroke-linejoin:miter;stroke-dasharray:none"
         id="path3871"
         inkscape:connector-curvature="0" />
    </g>
    <g
       id="Layer1007"
       style="fill:#17e2ff;fill-opacity:0.54128436;stroke:none">
      <path
         d="m 294.8233,429.2325 h 8.6329 v 17.4895 h -8.6329 z"
         style="fill:#17e2ff;fill-opacity:0.54128436;fill-rule:evenodd;stroke:none;stroke-width:1.06579995;stroke-linecap:butt;stroke-linejoin:miter;stroke-dasharray:none"
         id="path3874"
         inkscape:connector-curvature="0" />
      <path
         d="m 296.5734,488.3803 h 5.133 V 446.722 h -5.133 z"
         style="fill:#17e2ff;fill-opacity:0.54128436;fill-rule:evenodd;stroke:none;stroke-width:1.06579995;stroke-linecap:butt;stroke-linejoin:miter;stroke-dasharray:none"
         id="path3876"
         inkscape:connector-curvature="0" />
    </g>
    <g
       id="Layer1008"
       style="fill:#17e2ff;fill-opacity:0.54128436;stroke:none">
      <g
         id="Layer1009"
         style="fill:#17e2ff;fill-opacity:0.54128436;stroke:none">
        <path
           d="m 251.8722,428.7288 5.7206,5.743 -11.6346,11.5897 -5.7208,-5.7429 z"
           style="fill:#17e2ff;fill-opacity:0.54128436;fill-rule:evenodd;stroke:none;stroke-width:1.06579995;stroke-linecap:butt;stroke-linejoin:miter;stroke-dasharray:none"
           id="path3879"
           inkscape:connector-curvature="0" />
        <path
           d="m 220.5418,462.2577 3.4018,3.4145 20.855,-20.7746 -3.4018,-3.4148 z"
           style="fill:#17e2ff;fill-opacity:0.54128436;fill-rule:evenodd;stroke:none;stroke-width:1.06579995;stroke-linecap:butt;stroke-linejoin:miter;stroke-dasharray:none"
           id="path3881"
           inkscape:connector-curvature="0" />
      </g>
      <g
         id="Layer1010"
         style="fill:#17e2ff;fill-opacity:0.54128436;stroke:none">
        <path
           d="m 319.5887,428.7288 -5.7206,5.743 11.6345,11.5897 5.7209,-5.7429 z"
           style="fill:#17e2ff;fill-opacity:0.54128436;fill-rule:evenodd;stroke:none;stroke-width:1.06579995;stroke-linecap:butt;stroke-linejoin:miter;stroke-dasharray:none"
           id="path3884"
           inkscape:connector-curvature="0" />
        <path
           d="m 350.9191,462.2577 -3.4018,3.4145 -20.855,-20.7746 3.4018,-3.4148 z"
           style="fill:#17e2ff;fill-opacity:0.54128436;fill-rule:evenodd;stroke:none;stroke-width:1.06579995;stroke-linecap:butt;stroke-linejoin:miter;stroke-dasharray:none"
           id="path3886"
           inkscape:connector-curvature="0" />
      </g>
    </g>
    <path
       d="m 294.8233,446.722 c -1.8116,-1.9817 -4.3729,-3.1108 -7.0579,-3.1108 -2.6851,0 -5.2463,1.1291 -7.058,3.1108"
       style="fill:#17e2ff;fill-opacity:0.54128436;stroke:none;stroke-width:1.06579995;stroke-linecap:butt;stroke-linejoin:miter;stroke-dasharray:none"
       id="path3890"
       inkscape:connector-curvature="0" />
  </g>
  <path
     d="m 44.251964,253.77364 c -0.766184,0.32652 -1.198409,0.61973 -1.291588,0.88076 -0.0942,0.25781 0.01536,0.70075 0.325313,1.33014 0.681652,1.38494 1.500021,2.32608 2.457039,2.8277 0.955595,0.49821 2.266104,0.67425 3.9299,0.5248 l 0.259294,0.52661 -5.12485,1.29824 -5.456267,-11.08224 0.538425,-0.22942 c 0.335282,0.63053 0.702403,1.01034 1.103806,1.13858 0.399673,0.12503 0.960477,0.0336 1.681903,-0.2739 l 9.187194,-3.91555 c 0.669852,-0.28554 1.076137,-0.60611 1.221704,-0.96348 0.143939,-0.36079 0.07731,-0.86089 -0.196632,-1.50211 l 0.517876,-0.22081 3.302161,6.70738 -0.517876,0.22081 c -0.399572,-0.77798 -0.776764,-1.24695 -1.137782,-1.40396 -0.35817,-0.15825 -0.914905,-0.0764 -1.671018,0.24579 z m 18.448444,8.02114 -0.502923,0.24844 c -0.430801,-0.67926 -0.811655,-1.08302 -1.147955,-1.20511 -0.334773,-0.12663 -0.794667,-0.0434 -1.377952,0.24466 l -9.277423,4.58336 c -0.660696,0.32652 -1.040737,0.67018 -1.138188,1.02652 -0.09776,0.35624 0.02024,0.90196 0.350337,1.6311 l -0.523268,0.25838 -3.702445,-6.48789 0.523064,-0.25838 c 0.456741,0.63449 0.867909,1.01572 1.234725,1.13857 0.371699,0.12427 0.86211,0.0338 1.479167,-0.27097 l 9.344358,-4.61639 c 0.583285,-0.2881 0.916634,-0.60061 0.994554,-0.93925 0.0827,-0.33722 -0.06144,-0.8536 -0.425104,-1.55038 l 0.493158,-0.24361 z m -13.208849,7.71989 0.494582,-0.30286 c 0.463962,0.59124 0.902189,0.92799 1.315391,1.00474 0.413203,0.0767 0.938912,-0.08 1.576721,-0.47038 l 8.575019,-5.24947 c 0.605766,-0.37082 0.934538,-0.72867 0.991605,-1.07233 0.05361,-0.34157 -0.119627,-0.84432 -0.513807,-1.50428 l 0.475762,-0.29132 3.1687,4.48058 -6.405758,8.92074 11.342317,-1.94022 3.128925,4.42474 -0.485324,0.297 c -0.461929,-0.53759 -0.885812,-0.84102 -1.279077,-0.90869 -0.396825,-0.066 -0.892525,0.0811 -1.495443,0.44994 l -8.292634,5.07675 c -0.799041,0.48941 -1.244286,0.90149 -1.336855,1.23303 -0.09084,0.33457 0.06398,0.81082 0.466607,1.4316 l -0.494886,0.30286 -4.120531,-5.82633 0.494887,-0.30286 c 0.478611,0.5991 0.909412,0.93177 1.293521,0.99263 0.385737,0.0642 0.944303,-0.12985 1.673867,-0.57658 l 8.946414,-5.47643 -14.412446,2.52967 -0.338232,-0.47843 7.949316,-11.08356 -8.749476,5.35623 c -0.697826,0.42741 -1.086818,0.83467 -1.163213,1.21533 -0.07639,0.38076 0.118203,0.90036 0.579623,1.55284 l -0.494785,0.30295 z m 12.182556,15.58307 c 0.26906,0.3021 0.610445,0.47483 1.018765,0.5178 0.408015,0.0432 0.961393,-0.0389 1.65342,-0.24229 l 13.682272,-4.07342 0.39245,0.44086 -6.455093,11.51931 c -0.491021,0.88805 -0.75886,1.51204 -0.811146,1.86885 -0.04893,0.35445 0.05341,0.67444 0.302832,0.95487 l -0.473525,0.36514 -4.639831,-5.2101 0.480646,-0.35709 c 0.419001,0.44833 0.776255,0.73264 1.079901,0.85209 0.302832,0.12417 0.57006,0.0923 0.810027,-0.0926 0.07609,-0.0588 0.163776,-0.15398 0.26377,-0.29056 0.100402,-0.13685 0.245155,-0.3676 0.437209,-0.69459 l 0.896188,-1.50779 -3.22953,-3.62669 -1.712014,0.49821 c -0.23844,0.0647 -0.45379,0.14386 -0.648693,0.22942 -0.189206,0.0864 -0.343725,0.17329 -0.457961,0.26131 -0.268754,0.20737 -0.382889,0.45581 -0.34169,0.74552 0.04069,0.2898 0.247697,0.64415 0.615938,1.05737 l 0.08474,0.0952 -0.473728,0.36514 -2.948366,-3.31086 z m 6.363033,0.10089 2.776554,3.11769 2.738815,-4.7771 z m 73.832932,43.59773 c -0.0845,0.5956 0.0516,1.03995 0.40893,1.32966 0.35695,0.29321 1.03942,0.50541 2.04608,0.64311 l -0.0539,0.46386 -8.8212,-1.08227 0.0654,-0.46224 c 1.0147,0.11026 1.73267,0.07 2.15919,-0.1272 0.42185,-0.19421 0.67728,-0.59049 0.76181,-1.18609 l 1.25863,-8.88317 c 0.0681,-0.47994 0.0522,-0.79918 -0.0438,-0.96074 -0.0957,-0.16118 -0.31483,-0.26292 -0.64991,-0.3039 -0.22207,-0.0274 -0.48329,-0.0239 -0.78318,0.0107 -0.30018,0.0379 -0.63119,0.10411 -0.99709,0.19828 l 0.0715,-0.50407 5.94352,-1.55909 0.38777,0.0475 z m 10.54155,-6.31054 c 0.30131,-0.31393 0.5311,-0.68551 0.68603,-1.11065 0.15482,-0.42552 0.23813,-0.90149 0.24647,-1.42441 0.0121,-0.78063 -0.14902,-1.39421 -0.48756,-1.84036 -0.33854,-0.44644 -0.81003,-0.67558 -1.40949,-0.68362 -0.54696,-0.008 -0.99394,0.15238 -1.34082,0.47994 -0.34688,0.32757 -0.52479,0.75981 -0.53313,1.29692 -0.009,0.57194 0.21392,1.12305 0.66924,1.64483 0.45501,0.52556 1.17562,1.07261 2.16926,1.63735 z m -2.83474,2.04651 c -1.0502,-0.60128 -1.8115,-1.22291 -2.27973,-1.86517 -0.46885,-0.63904 -0.69641,-1.36988 -0.68369,-2.1825 0.0173,-1.09883 0.49885,-2.00382 1.44407,-2.71527 0.94553,-0.71154 2.14332,-1.05917 3.58648,-1.03939 1.31377,0.0178 2.37607,0.32549 3.19088,0.91976 0.81491,0.59399 1.21316,1.3449 1.19871,2.25624 -0.0113,0.72441 -0.25604,1.32181 -0.73038,1.78519 -0.47464,0.46707 -1.24052,0.86306 -2.29763,1.18798 1.15487,0.70472 1.97954,1.4015 2.47006,2.09013 0.49051,0.69223 0.72864,1.46946 0.71512,2.33839 -0.0214,1.35323 -0.51269,2.42045 -1.47439,3.19899 -0.9619,0.78186 -2.25512,1.16006 -3.88036,1.13782 -1.38609,-0.0187 -2.50455,-0.36268 -3.36014,-1.03475 -0.85143,-0.66914 -1.27105,-1.52283 -1.25457,-2.56506 0.0135,-0.86203 0.28656,-1.57186 0.82356,-2.12989 0.53253,-0.55831 1.37938,-1.02008 2.53201,-1.38247 z m 0.63984,0.36192 c -0.38868,0.34091 -0.69986,0.78896 -0.92884,1.34784 -0.22521,0.55878 -0.34454,1.15069 -0.35461,1.77979 -0.0138,0.88294 0.17639,1.5853 0.56711,2.10632 0.39022,0.52471 0.92539,0.79009 1.59748,0.79918 0.55073,0.008 1.00554,-0.18778 1.36879,-0.58188 0.3596,-0.39438 0.54616,-0.91143 0.55623,-1.55444 0.0124,-0.79123 -0.20782,-1.50457 -0.66517,-2.13613 -0.45735,-0.62826 -1.16952,-1.21742 -2.14099,-1.76068 z m 10.20871,6.57772 3.34346,-12.08349 -4.12714,0.33665 c -0.73384,0.0601 -1.26962,0.23879 -1.60409,0.53181 -0.33477,0.29349 -0.6024,0.80836 -0.81175,1.53836 l -0.52195,0.0426 0.57901,-4.77171 9.10216,-0.74287 -3.96225,14.98587 z m 10.51245,-9.41943 c 0.0147,0.39836 0.0563,0.8129 0.12055,1.24108 0.064,0.42789 0.1537,0.88322 0.26417,1.36023 0.36153,1.56117 0.76527,2.68365 1.20899,3.37551 0.44352,0.69166 0.94959,0.98061 1.52138,0.866 0.48614,-0.0974 0.78257,-0.37745 0.88551,-0.83884 0.10671,-0.46234 0.0317,-1.23899 -0.21911,-2.32334 -0.39215,-1.69263 -0.80596,-2.84199 -1.24165,-3.44857 -0.43456,-0.60308 -0.98672,-0.83969 -1.65118,-0.70662 -0.19663,0.0394 -0.36559,0.0987 -0.50282,0.17699 -0.1419,0.0752 -0.26987,0.17708 -0.38584,0.29756 z m 4.52336,-8.01206 0.12949,0.55935 c -1.47062,0.52613 -2.59752,1.34841 -3.38089,2.45963 -0.78694,1.11558 -1.19038,2.47581 -1.21113,4.08089 0.32216,-0.20197 0.64249,-0.36353 0.95071,-0.49044 0.30569,-0.12257 0.60669,-0.2157 0.89619,-0.27362 1.15457,-0.2315 2.19144,-0.0306 3.11906,0.60364 0.92711,0.631 1.53491,1.56117 1.81954,2.7907 0.3247,1.40235 0.13814,2.64342 -0.55511,3.72569 -0.69376,1.08226 -1.74396,1.76257 -3.1511,2.04461 -1.4812,0.29671 -2.80707,0.006 -3.98097,-0.86818 -1.17409,-0.87783 -1.96042,-2.17711 -2.35867,-3.8969 -0.57271,-2.47326 -0.17191,-4.66788 1.20329,-6.58075 1.37134,-1.91229 3.54783,-3.29874 6.51959,-4.15462 z m 49.6256,-30.77573 c 0.82833,-0.89306 1.50226,-1.53296 2.02074,-1.92431 0.51818,-0.39117 1.0444,-0.68287 1.57581,-0.87708 0.69172,-0.23746 1.37368,-0.29671 2.0539,-0.17547 0.67677,0.11888 1.29444,0.40489 1.85524,0.85474 1.01765,0.81726 1.48619,1.80478 1.40603,2.96777 -0.0805,1.163 -0.70128,2.37275 -1.86968,3.63256 l -1.32465,1.42838 3.20562,2.57368 c 0.63547,0.51023 1.14704,0.74826 1.54092,0.72356 0.39102,-0.0266 0.86099,-0.31176 1.40826,-0.84755 l 0.4484,0.36003 -5.01641,5.40867 -0.4484,-0.36003 c 0.47668,-0.54601 0.69518,-1.01469 0.65337,-1.40775 -0.044,-0.39003 -0.36702,-0.82653 -0.9677,-1.30894 l -7.65625,-6.14689 c -0.55225,-0.44322 -1.03463,-0.65333 -1.44437,-0.62778 -0.4126,0.0281 -0.8734,0.29293 -1.38609,0.79142 l -0.43141,-0.34611 z m 5.09626,5.4081 0.42938,-0.46281 c 0.72692,-0.78385 1.04725,-1.49728 0.96678,-2.14058 -0.0833,-0.64548 -0.58786,-1.34008 -1.51355,-2.08323 -0.92589,-0.74343 -1.72432,-1.13697 -2.39793,-1.17861 -0.67443,-0.0467 -1.30767,0.25251 -1.90306,0.8942 -0.28777,0.31044 -0.42327,0.57014 -0.41177,0.78499 0.0115,0.21437 0.17852,0.45098 0.50638,0.71419 z m 11.53061,-1.02832 -0.46396,-0.3074 c 0.46081,-0.60156 0.66029,-1.09381 0.59488,-1.47135 -0.0655,-0.37716 -0.42765,-0.78688 -1.08621,-1.22357 l -8.02286,-5.31856 c -0.78226,-0.51856 -1.38029,-0.7546 -1.79787,-0.71466 -0.41463,0.0418 -0.85,0.3606 -1.30156,0.95052 l -0.46396,-0.30741 7.53662,-9.84126 3.74832,2.48509 -0.30425,0.39713 c -1.18366,-0.61576 -2.24251,-0.77968 -3.17419,-0.49471 -0.92844,0.28678 -1.88637,1.07469 -2.87106,2.36092 -0.44097,0.57544 -0.64391,0.97465 -0.60821,1.20217 0.0355,0.22743 0.3066,0.50673 0.80769,0.83912 l 3.93366,2.60775 c 0.0266,-0.0344 0.0693,-0.084 0.12838,-0.14916 0.0591,-0.0649 0.10376,-0.11755 0.12797,-0.14916 0.55541,-0.72517 0.76099,-1.41333 0.62458,-2.06335 -0.1418,-0.64926 -0.65917,-1.37415 -1.55129,-2.16935 l 0.31748,-0.41426 6.27189,4.15784 -0.31748,0.41426 c -1.12913,-0.61387 -2.05736,-0.86922 -2.78174,-0.7635 -0.72488,0.10032 -1.41864,0.58613 -2.07985,1.44948 l -0.0905,0.11783 4.11972,2.73107 c 0.54432,0.36088 0.94776,0.51572 1.21102,0.46443 0.26072,-0.0483 0.59051,-0.33268 0.98733,-0.85067 0.95844,-1.25187 1.46279,-2.39716 1.51731,-3.43674 0.0547,-1.03968 -0.33273,-2.14683 -1.15456,-3.3209 l 0.37455,-0.48903 3.40836,3.33103 z m -1.08417,-24.23757 c 1.14704,-1.83564 2.29234,-3.04321 3.44284,-3.62641 1.1508,-0.58301 2.31748,-0.55273 3.50958,0.0917 0.80077,0.43328 1.33014,1.03428 1.58618,1.80611 0.25746,0.76861 0.23132,1.6824 -0.0767,2.73788 l 7.06808,-0.44407 c 0.5311,-0.0274 0.91836,-0.0914 1.1623,-0.20093 0.24403,-0.10894 0.44321,-0.28735 0.59976,-0.53787 l 0.0344,-0.0548 0.51208,0.27693 -2.41635,3.867 -8.56088,0.37214 -0.33192,0.53124 3.85788,2.08663 c 0.72203,0.3907 1.27541,0.53872 1.65749,0.44701 0.37912,-0.0934 0.7849,-0.4542 1.21651,-1.07478 l 0.51208,0.27721 -3.8593,6.17614 -0.51208,-0.27684 c 0.3602,-0.61869 0.48237,-1.11662 0.36336,-1.49576 -0.12055,-0.37612 -0.52429,-0.74959 -1.21052,-1.1206 l -8.7394,-4.72694 c -0.63374,-0.3428 -1.14409,-0.46782 -1.53288,-0.37962 -0.38889,0.088 -0.7967,0.43121 -1.21997,1.02406 l -0.49225,-0.26642 z m 5.89937,4.47821 0.3719,-0.5956 c 0.58593,-0.93765 0.77748,-1.75784 0.56783,-2.45594 -0.2062,-0.69564 -0.82732,-1.32587 -1.85819,-1.88362 -0.92589,-0.50057 -1.73643,-0.69374 -2.43598,-0.58613 -0.69661,0.10969 -1.26901,0.51931 -1.71568,1.23407 -0.30161,0.4826 -0.41931,0.83997 -0.35125,1.06882 0.0678,0.22886 0.39163,0.49793 0.96607,0.80865 z m 1.19312,-11.35245 c -0.66578,-0.28526 -1.19169,-0.36277 -1.5816,-0.23425 -0.38777,0.13364 -0.75052,0.50333 -1.09628,1.11766 l -0.51727,-0.22156 3.20095,-6.47029 0.52764,0.22591 c -0.31046,0.69545 -0.40476,1.20729 -0.28452,1.53893 0.12543,0.32974 0.54758,0.65059 1.27531,0.96235 l 6.61999,2.83489 c 1.65576,0.70908 2.8974,0.99595 3.72381,0.86363 0.82294,-0.13363 1.4812,-0.69592 1.97517,-1.69395 0.55562,-1.12334 0.62001,-2.11484 0.19755,-2.97629 -0.42246,-0.86174 -1.33655,-1.59174 -2.744,-2.19434 l -6.75081,-2.8913 c -0.68633,-0.29406 -1.22089,-0.37101 -1.60154,-0.22668 -0.38096,0.14405 -0.76873,0.56522 -1.1626,1.2601 l -0.52805,-0.2262 2.06754,-4.17875 0.52764,0.2262 c -0.2122,0.58963 -0.23905,1.04895 -0.083,1.37623 0.16093,0.32548 0.5603,0.62513 1.20879,0.90281 l 6.06081,2.59564 c 1.07298,0.45959 1.83388,0.83978 2.28604,1.14236 0.4542,0.3075 0.82813,0.6503 1.12547,1.03797 0.54931,0.70614 0.83394,1.51668 0.84716,2.43606 0.0149,0.91644 -0.23671,1.89782 -0.75428,2.94411 -0.85764,1.73342 -1.89858,2.82373 -3.12832,3.27339 -1.23014,0.44965 -2.73596,0.29084 -4.51939,-0.47304 z"
     style="fill:#17e2ff;fill-opacity:0.54128436;fill-rule:evenodd;stroke-width:0.98120505"
     id="path3893"
     inkscape:connector-curvature="0" />
</svg>
