<?xml version="1.0" encoding="UTF-8" standalone="no"?>
<!-- Created with Inkscape (http://www.inkscape.org/) -->

<svg
   xmlns:dc="http://purl.org/dc/elements/1.1/"
   xmlns:cc="http://creativecommons.org/ns#"
   xmlns:rdf="http://www.w3.org/1999/02/22-rdf-syntax-ns#"
   xmlns:svg="http://www.w3.org/2000/svg"
   xmlns="http://www.w3.org/2000/svg"
   xmlns:sodipodi="http://sodipodi.sourceforge.net/DTD/sodipodi-0.dtd"
   xmlns:inkscape="http://www.inkscape.org/namespaces/inkscape"
   width="150mm"
   height="150mm"
   viewBox="0 0 150 150"
   version="1.1"
   id="svg1946"
   inkscape:version="0.92.4 (5da689c313, 2019-01-14)"
   sodipodi:docname="rueda.svg">
  <defs
     id="defs1940" />
  <sodipodi:namedview
     id="base"
     pagecolor="#ffffff"
     bordercolor="#666666"
     borderopacity="1.0"
     inkscape:pageopacity="0.0"
     inkscape:pageshadow="2"
     inkscape:zoom="0.35"
     inkscape:cx="-247.14286"
     inkscape:cy="560"
     inkscape:document-units="mm"
     inkscape:current-layer="layer1"
     showgrid="false"
     inkscape:window-width="1920"
     inkscape:window-height="1001"
     inkscape:window-x="-9"
     inkscape:window-y="-9"
     inkscape:window-maximized="1" />
  <metadata
     id="metadata1943">
    <rdf:RDF>
      <cc:Work
         rdf:about="">
        <dc:format>image/svg+xml</dc:format>
        <dc:type
           rdf:resource="http://purl.org/dc/dcmitype/StillImage" />
        <dc:title></dc:title>
      </cc:Work>
    </rdf:RDF>
  </metadata>
  <g
     inkscape:label="Capa 1"
     inkscape:groupmode="layer"
     id="layer1"
     transform="translate(0,-147)">
    <g
       id="g1790"
       transform="matrix(1.0020877,0,0,1.0032375,-67.295272,35.282825)"
       style="fill:#ffffff;fill-opacity:0.99000001;opacity:0.893">
      <path
         id="path1402"
         transform="matrix(0.26458333,0,0,0.26458333,0,87)"
         d="m 529.66406,92.056641 v 84.585939 a 198.4252,198.4252 0 0 0 -74.19922,17.45117 51.840498,66.405554 56.044883 0 0 -4.17968,-41.45117 l -0.82813,-1.18164 a 51.840498,66.405554 56.044883 0 0 -62.52344,-14.79492 l 46.20703,68.62109 a 198.4252,198.4252 0 0 0 -60.44921,56.71875 51.840498,66.405554 31.781105 0 0 -20.78907,-35.62109 l -1.24023,-0.73633 a 51.840498,66.405554 31.781105 0 0 -63.08008,12.20508 l 72.42188,44.86914 a 198.4252,198.4252 0 0 0 -21.66993,72.72656 51.840498,66.405554 0 0 0 -35.42773,-19.87891 l -1.44141,-0.0273 a 51.840498,66.405554 0 0 0 -48.65039,43.625 h 84.55078 a 198.4252,198.4252 0 0 0 18.31055,78.56055 66.405554,51.840498 60.736557 0 0 -47.30078,-1.95313 l -1.24609,0.72852 a 66.405554,51.840498 60.736557 0 0 -19.85938,61.10351 l 77.07227,-43.1875 a 198.4252,198.4252 0 0 0 53.76367,59.97266 66.405554,51.840498 29.030751 0 0 -38.06641,22.95703 l -0.67773,1.27344 a 66.405554,51.840498 29.030751 0 0 15.21679,62.42187 l 41.52344,-74.8125 a 198.4252,198.4252 0 0 0 77.85938,25.72852 66.405554,51.840498 0 0 0 -19.47071,35.10351 l -0.0254,1.44141 a 66.405554,51.840498 0 0 0 43.62305,48.65039 v -83.9043 a 198.4252,198.4252 0 0 0 81.21289,-18.67578 51.840498,66.405554 61.51513 0 0 -0.75976,43.84375 l 0.71093,1.25586 a 51.840498,66.405554 61.51513 0 0 60.82813,20.6875 l -41.31641,-76.14453 a 198.4252,198.4252 0 0 0 57.14844,-52.62891 51.840498,66.405554 27.451194 0 0 23.68359,35.27539 l 1.29297,0.64063 a 51.840498,66.405554 27.451194 0 0 61.97852,-16.93164 l -74.25586,-38.57617 a 198.4252,198.4252 0 0 0 24.21289,-75.26563 51.840498,66.405554 0 0 0 37.10156,20.16211 l 1.44141,-0.0273 a 51.840498,66.405554 0 0 0 47.19531,-43.59571 h -84.45898 l -0.0547,-3.91992 a 198.4252,198.4252 0 0 0 -18.7168,-78.19726 66.405554,51.840498 61.219408 0 0 41.60352,-0.44727 l 1.25,-0.7168 a 66.405554,51.840498 61.219408 0 0 20.375,-60.93554 l -74.64063,41.00195 a 198.4252,198.4252 0 0 0 -53.96484,-57.13867 66.405554,51.840498 30.484853 0 0 36.19336,-21.74414 l 0.70703,-1.25586 A 66.405554,51.840498 30.484853 0 0 674.22852,127.13086 L 631.05273,200.4707 A 198.4252,198.4252 0 0 0 553.80469,177.25 66.405554,51.840498 0 0 0 573.28906,140.69531 l -0.0273,-1.44336 a 66.405554,51.840498 0 0 0 -43.5977,-47.195309 z m 3.55469,116.287109 a 166.29921,166.29921 0 0 1 169.70508,161.63672 l 0.0645,4.62695 A 166.29921,166.29921 0 0 1 537.8457,540.90234 166.29921,166.29921 0 0 1 370.40625,376.91992 166.29921,166.29921 0 0 1 533.21875,208.34375 Z"
         style="opacity:0.606;fill:#ffffff;fill-opacity:0.99000001;stroke:none;stroke-width:3.60875058;stroke-miterlimit:4;stroke-dasharray:none;stroke-opacity:1"
         inkscape:connector-curvature="0" />
      <path
         inkscape:connector-curvature="0"
         id="path1785"
         d="m 141.08079,144.77013 a 41,41 0 0 0 -40.1407,41.56129 41,41 0 0 0 41.2812,40.42854 41,41 0 0 0 40.71483,-40.99905 l -0.016,-1.1405 a 41,41 0 0 0 -41.83931,-39.85028 z m 0.64699,30.99295 a 10,10 0 0 1 10.20455,9.71981 l 0.004,0.27802 a 10,10 0 0 1 -9.93014,9.99991 10,10 0 0 1 -10.06864,-9.86038 10,10 0 0 1 9.79062,-10.13736 z"
         style="opacity:0.606;fill:#ffffff;fill-opacity:0.99000001;stroke:none;stroke-width:1.18306935;stroke-miterlimit:4;stroke-dasharray:none;stroke-opacity:1" />
    </g>
  </g>
</svg>
